<svg width="60" height="61" viewBox="0 0 60 61" fill="none" xmlns="http://www.w3.org/2000/svg">
<path d="M33.8385 21.3803L38.0044 29.8429L37.6473 30.4976L37.5223 30.4381C37.6395 30.2614 37.7036 30.0549 37.7068 29.8429C37.7068 28.1587 34.1361 26.7781 29.6667 26.7781C25.1974 26.7781 21.6029 28.1707 21.6029 29.8429C21.6139 30.0267 21.6541 30.2074 21.7219 30.3785L21.6029 30.4381L21.2993 29.8429L25.4652 21.3803L29.631 12.9177L33.8385 21.3803Z" fill="#E7F7EF"/>
<path d="M37.683 30.5511L33.8385 38.3471L29.6727 46.8097L25.5902 38.359L21.7219 30.4975L21.8409 30.438C22.5015 31.8782 25.7984 32.9613 29.7619 32.9613C33.6005 32.9613 36.8439 31.8782 37.6235 30.4975L37.683 30.5511Z" fill="#E7F7EF"/>
<path d="M37.7425 29.9024C37.7473 30.1146 37.6848 30.323 37.564 30.4975C36.7784 31.8782 33.541 32.9613 29.7024 32.9613C25.7389 32.9613 22.5015 31.8782 21.7814 30.438C21.7136 30.2669 21.6734 30.0861 21.6624 29.9024C21.6624 28.2182 25.2628 26.8375 29.7024 26.8375C34.142 26.8375 37.7425 28.2182 37.7425 29.9024Z" fill="white"/>
<path d="M29.7024 47.6608C29.5608 47.6589 29.4228 47.6157 29.3054 47.5364C29.188 47.4571 29.0964 47.3452 29.0419 47.2144L24.876 38.7578L20.6983 30.2C20.6397 30.0997 20.6088 29.9857 20.6088 29.8697C20.6088 29.7536 20.6397 29.6396 20.6983 29.5394L29.03 12.5606C29.0892 12.4352 29.1826 12.3291 29.2995 12.2543C29.4163 12.1796 29.5518 12.1393 29.6905 12.1381C29.8288 12.1413 29.9634 12.1825 30.0799 12.257C30.1964 12.3315 30.2902 12.4365 30.3511 12.5606L38.6828 29.5394C38.7414 29.6396 38.7722 29.7536 38.7722 29.8697C38.7722 29.9857 38.7414 30.0997 38.6828 30.2L30.3511 47.2144C30.2956 47.3421 30.2053 47.4516 30.0907 47.5305C29.976 47.6094 29.8415 47.6545 29.7024 47.6608ZM22.198 29.9024L26.221 38.0615L29.7024 45.2029L33.1779 38.0615L37.201 29.9024L29.7024 14.6019L22.198 29.9024Z" fill="#0FAB64"/>
<path d="M29.7024 33.7409C27.8723 33.7535 26.0507 33.4907 24.2988 32.9613C23.1621 32.5983 21.6624 31.8782 21.1208 30.7415C21.0055 30.4766 20.9448 30.1912 20.9423 29.9024C20.9423 28.7597 21.9599 27.7421 23.7631 27.022C25.6765 26.36 27.6899 26.0338 29.7143 26.0579C31.7388 26.0338 33.7522 26.36 35.6655 27.022C37.4509 27.7421 38.4864 28.7597 38.4864 29.9024C38.5006 30.2387 38.4158 30.5719 38.2424 30.8605C37.1414 32.8423 33.1779 33.7409 29.7024 33.7409ZM29.7024 27.5576C27.8659 27.5254 26.0377 27.8113 24.2988 28.4027C22.9181 28.9383 22.442 29.5393 22.442 29.9024C22.4331 29.9862 22.4542 30.0706 22.5015 30.1404C22.9835 31.1581 25.858 32.2412 29.7024 32.2412C33.5469 32.2412 36.3618 31.1462 36.8974 30.1404C36.9456 30.049 36.9662 29.9457 36.957 29.8428C36.957 29.4798 36.4749 28.8788 35.0942 28.3431C33.3475 27.8097 31.5286 27.5507 29.7024 27.5754V27.5576Z" fill="#0FAB64"/>
</svg>
