<svg width="694" height="217" viewBox="0 0 694 217" fill="none" xmlns="http://www.w3.org/2000/svg">
<path d="M206.8 82C200 81.6 193.3 90.8 189.6 91.6C185 92.6 182.5 90.5 180.2 87.5C175.7 81.7 174.6 75.7 177.1 60.5C177.1 60.4 177.1 60.4 177.1 60.3C179.1 50.7 181.7 41.1 184.8 31.9C185.3 29.2 184 26.6 181.6 25.4C174.6 22.6 169.5 20.3 161.1 18.5C156 17.6 147.2 16.5 143.3 16.5C135.7 16.5 132.3 19.2 131.5 22.2C130.1 27.4 142.5 34.6 141.9 42C141 52.4 125.3 58 108.6 58C91.9 58 76.1 52.4 75.3 42C74.7 34.7 87.1 27.5 85.7 22.2C84.9 19.2 81.5 16.5 73.9 16.5C70 16.5 61.2 17.6 56.1 18.5C47.6 20.3 42.6 22.6 35.6 25.4C33.2 26.6 31.9 29.2 32.4 31.9C35.6 41.2 38.2 50.7 40.1 60.3C40.1 60.4 40.1 60.4 40.1 60.5C42.6 75.7 41.5 81.7 37 87.5C34.7 90.5 32.2 92.6 27.6 91.6C23.9 90.8 17.3 81.6 10.4 82C4.29999 82.3 0.5 96 0.5 108.1C0.5 120.2 4.19999 133.9 10.4 134.2C17.2 134.6 23.9 125.4 27.6 124.6C32.2 123.6 34.7 125.7 37 128.7C41.5 134.5 42.6 140.5 40.1 155.7C40.1 155.8 40.1 155.8 40.1 155.9C38.1 165.5 35.5 175.1 32.4 184.3C31.9 187 33.2 189.6 35.6 190.8C42.6 193.6 47.7 195.9 56.1 197.7C61.2 198.6 70 199.7 73.9 199.7C81.5 199.7 84.9 197 85.7 194C87.1 188.8 74.7 181.6 75.3 174.2C76.2 163.8 91.9 158.2 108.6 158.2C125.3 158.2 141.1 163.8 141.9 174.2C142.5 181.5 130.1 188.7 131.5 194C132.3 197 135.7 199.7 143.3 199.7C147.2 199.7 156 198.6 161.1 197.7C169.6 195.9 174.6 193.6 181.6 190.8C184 189.6 185.3 187 184.8 184.3C181.6 175 179 165.5 177.1 155.9C177.1 155.8 177.1 155.8 177.1 155.7C174.6 140.5 175.7 134.5 180.2 128.7C182.5 125.7 185 123.6 189.6 124.6C193.3 125.4 199.9 134.6 206.8 134.2C212.9 133.9 216.7 120.2 216.7 108.1C216.6 96 212.9 82.3 206.8 82Z" fill="#B3B3B3"/>
<path opacity="0.85" d="M535.6 82C528.8 81.6 522.1 90.8 518.4 91.6C513.8 92.6 511.3 90.5 509 87.5C504.5 81.7 503.4 75.7 505.9 60.5C505.9 60.4 505.9 60.4 505.9 60.3C507.9 50.7 510.5 41.1 513.6 31.9C514.1 29.2 512.8 26.6 510.4 25.4C503.4 22.6 498.3 20.3 489.9 18.5C484.8 17.6 476 16.5 472.1 16.5C464.5 16.5 461.1 19.2 460.3 22.2C458.9 27.4 471.3 34.6 470.7 42C469.8 52.4 454.1 58 437.4 58C420.7 58 404.9 52.4 404.1 42C403.5 34.7 415.9 27.5 414.5 22.2C413.7 19.2 410.3 16.5 402.7 16.5C398.8 16.5 390 17.6 384.9 18.5C376.4 20.3 371.4 22.6 364.4 25.4C362 26.6 360.7 29.2 361.2 31.9C364.4 41.2 367 50.7 368.9 60.3C368.9 60.4 368.9 60.4 368.9 60.5C371.4 75.7 370.3 81.7 365.8 87.5C363.5 90.5 361 92.6 356.4 91.6C352.7 90.8 346.1 81.6 339.2 82C333.1 82.3 329.3 96 329.3 108.1C329.3 120.2 333 133.9 339.2 134.2C346 134.6 352.7 125.4 356.4 124.6C361 123.6 363.5 125.7 365.8 128.7C370.3 134.5 371.4 140.5 368.9 155.7C368.9 155.8 368.9 155.8 368.9 155.9C366.9 165.5 364.3 175.1 361.2 184.3C360.7 187 362 189.6 364.4 190.8C371.4 193.6 376.5 195.9 384.9 197.7C390 198.6 398.8 199.7 402.7 199.7C410.3 199.7 413.7 197 414.5 194C415.9 188.8 403.5 181.6 404.1 174.2C405 163.8 420.7 158.2 437.4 158.2C454.1 158.2 469.9 163.8 470.7 174.2C471.3 181.5 458.9 188.7 460.3 194C461.1 197 464.5 199.7 472.1 199.7C476 199.7 484.8 198.6 489.9 197.7C498.4 195.9 503.4 193.6 510.4 190.8C512.8 189.6 514.1 187 513.6 184.3C510.4 175 507.8 165.5 505.9 155.9C505.9 155.8 505.9 155.8 505.9 155.7C503.4 140.5 504.5 134.5 509 128.7C511.3 125.7 513.8 123.6 518.4 124.6C522.1 125.4 528.7 134.6 535.6 134.2C541.7 133.9 545.5 120.2 545.5 108.1C545.4 96 541.7 82.3 535.6 82Z" fill="#B3B3B3"/>
<path d="M246.9 9.89999C246.5 16.7 255.7 23.4 256.5 27.1C257.5 31.7 255.4 34.2 252.4 36.5C246.6 41 240.6 42.1 225.4 39.6C225.3 39.6 225.3 39.6 225.2 39.6C215.6 37.6 206 35 196.8 31.9C194.1 31.4 191.5 32.7 190.3 35.1C187.5 42.1 185.2 47.2 183.4 55.6C182.5 60.7 181.4 69.5 181.4 73.4C181.4 81 184.1 84.4 187.1 85.2C192.3 86.6 199.5 74.2 206.9 74.8C217.3 75.7 222.9 91.4 222.9 108.1C222.9 124.8 217.3 140.6 206.9 141.4C199.6 142 192.4 129.6 187.1 131C184.1 131.8 181.4 135.2 181.4 142.8C181.4 146.7 182.5 155.5 183.4 160.6C185.2 169.1 187.5 174.1 190.3 181.1C191.5 183.5 194.1 184.8 196.8 184.3C206.1 181.1 215.6 178.5 225.2 176.6C225.3 176.6 225.3 176.6 225.4 176.6C240.6 174.1 246.6 175.2 252.4 179.7C255.4 182 257.5 184.5 256.5 189.1C255.7 192.8 246.5 199.4 246.9 206.3C247.2 212.4 260.9 216.2 273 216.2C285.1 216.2 298.8 212.5 299.1 206.3C299.5 199.5 290.3 192.8 289.5 189.1C288.5 184.5 290.6 182 293.6 179.7C299.4 175.2 305.4 174.1 320.6 176.6C320.7 176.6 320.7 176.6 320.8 176.6C330.4 178.6 340 181.2 349.2 184.3C351.9 184.8 354.5 183.5 355.7 181.1C358.5 174.1 360.8 169 362.6 160.6C363.5 155.5 364.6 146.7 364.6 142.8C364.6 135.2 361.9 131.8 358.9 131C353.7 129.6 346.5 142 339.1 141.4C328.7 140.5 323.1 124.8 323.1 108.1C323.1 91.4 328.7 75.6 339.1 74.8C346.4 74.2 353.6 86.6 358.9 85.2C361.9 84.4 364.6 81 364.6 73.4C364.6 69.5 363.5 60.7 362.6 55.6C360.8 47.1 358.5 42.1 355.7 35.1C354.5 32.7 351.9 31.4 349.2 31.9C339.9 35.1 330.4 37.7 320.8 39.6C320.7 39.6 320.7 39.6 320.6 39.6C305.4 42.1 299.4 41 293.6 36.5C290.6 34.2 288.5 31.7 289.5 27.1C290.3 23.4 299.5 16.8 299.1 9.89999C298.8 3.79999 285.1 0 273 0C260.9 0 247.2 3.79999 246.9 9.89999Z" fill="#0FAB64"/>
<path opacity="0.5" d="M575.7 9.89999C575.3 16.7 584.5 23.4 585.3 27.1C586.3 31.7 584.2 34.2 581.2 36.5C575.4 41 569.4 42.1 554.2 39.6C554.1 39.6 554.1 39.6 554 39.6C544.4 37.6 534.8 35 525.6 31.9C522.9 31.4 520.3 32.7 519.1 35.1C516.3 42.1 514 47.2 512.2 55.6C511.3 60.7 510.2 69.5 510.2 73.4C510.2 81 512.9 84.4 515.9 85.2C521.1 86.6 528.3 74.2 535.7 74.8C546.1 75.7 551.7 91.4 551.7 108.1C551.7 124.8 546.1 140.6 535.7 141.4C528.4 142 521.2 129.6 515.9 131C512.9 131.8 510.2 135.2 510.2 142.8C510.2 146.7 511.3 155.5 512.2 160.6C514 169.1 516.3 174.1 519.1 181.1C520.3 183.5 522.9 184.8 525.6 184.3C534.9 181.1 544.4 178.5 554 176.6C554.1 176.6 554.1 176.6 554.2 176.6C569.4 174.1 575.4 175.2 581.2 179.7C584.2 182 586.3 184.5 585.3 189.1C584.5 192.8 575.3 199.4 575.7 206.3C576 212.4 589.7 216.2 601.8 216.2C613.9 216.2 627.6 212.5 627.9 206.3C628.3 199.5 619.1 192.8 618.3 189.1C617.3 184.5 619.4 182 622.5 179.7C628.3 175.2 634.3 174.1 649.5 176.6C649.6 176.6 649.6 176.6 649.7 176.6C659.3 178.6 668.9 181.2 678.1 184.3C680.8 184.8 683.4 183.5 684.6 181.1C687.4 174.1 689.7 169 691.5 160.6C692.4 155.5 693.5 146.7 693.5 142.8C693.5 135.2 690.8 131.8 687.8 131C682.6 129.6 675.4 142 668 141.4C657.6 140.5 652 124.8 652 108.1C652 91.4 657.6 75.6 668 74.8C675.3 74.2 682.5 86.6 687.8 85.2C690.8 84.4 693.5 81 693.5 73.4C693.5 69.5 692.4 60.7 691.5 55.6C689.7 47.1 687.4 42.1 684.6 35.1C683.4 32.7 680.8 31.4 678.1 31.9C668.8 35.1 659.3 37.7 649.7 39.6C649.6 39.6 649.6 39.6 649.5 39.6C634.3 42.1 628.3 41 622.5 36.5C619.5 34.2 617.4 31.7 618.3 27.1C619.1 23.4 628.3 16.8 627.9 9.89999C627.6 3.79999 613.9 0 601.8 0C589.7 0 576.1 3.79999 575.7 9.89999Z" fill="#B3B3B3"/>
</svg>
