<svg width="358" height="359" viewBox="0 0 358 359" fill="none" xmlns="http://www.w3.org/2000/svg">
<g clip-path="url(#clip0_3524_2554)">
<path d="M200.383 256.964C203.515 258.26 206.862 258.908 210.048 258.908C217.068 258.908 222.684 255.776 224.789 250.7C225.221 249.728 225.761 248.378 226.463 246.866C227.489 244.491 228.785 241.575 230.081 238.389C231.647 234.555 234.617 232.341 238.235 232.341C241.907 232.341 245.794 234.609 249.142 238.767C256.432 247.676 263.289 257.18 269.553 267.169C274.629 259.016 280.19 251.132 286.076 243.573C289.046 239.793 292.772 237.741 296.821 237.741C301.411 237.741 305.947 240.441 309.349 245.084C315.45 253.562 321.984 260.366 325.278 261.716C326.682 262.31 328.14 262.579 329.652 262.579C336.455 262.579 343.529 256.91 346.877 248.81C351.088 238.497 348.281 227.589 340.613 224.404C339.641 223.972 338.291 223.432 336.725 222.73C334.349 221.704 331.434 220.408 328.248 219.112C324.846 217.708 322.74 215.278 322.308 212.2C321.714 208.259 324.036 203.777 328.626 199.997C337.859 192.437 347.741 185.364 358 178.992C351.79 169.003 344.825 159.283 337.319 150.104C334.619 146.756 331.541 144.866 328.896 144.866C326.034 144.866 324.522 147.08 323.766 148.916C322.47 152.102 321.174 154.964 320.202 157.339C319.5 158.905 318.906 160.309 318.528 161.281C315.936 167.599 309.133 171.487 300.817 171.487C297.199 171.487 293.42 170.731 289.91 169.273C277.977 164.359 271.389 152.75 275.223 143.408C277.113 138.71 285.968 131.151 292.934 126.129C296.713 123.429 298.873 119.865 298.927 116.356C298.981 113.278 297.415 110.362 294.338 107.986C286.508 101.884 278.246 96.0528 269.607 90.7611C259.348 97.0788 249.412 104.206 240.071 111.82C236.399 114.79 234.455 118.246 234.887 120.999C235.265 123.429 237.263 124.725 238.883 125.373C242.123 126.723 245.092 127.965 247.468 129.045C248.98 129.693 250.276 130.287 251.248 130.665C260.589 134.499 264.153 147.35 259.24 159.283C255.352 168.733 247.252 175.104 239.045 175.104C237.101 175.104 235.211 174.726 233.429 174.024C228.731 172.081 221.172 163.279 216.15 156.313C213.396 152.48 209.778 150.32 206.215 150.32C203.191 150.32 200.329 151.886 198.007 154.856C192.013 162.523 186.344 170.677 181.16 178.992C189.583 184.23 197.791 189.954 205.621 196.055C209.454 199.025 211.506 202.967 211.452 207.071C211.344 211.66 208.752 216.034 204.109 219.382C195.685 225.484 188.827 232.017 187.478 235.311C184.292 243.033 190.069 252.698 200.383 256.964Z" fill="#B3B3B3"/>
<path opacity="0.3" d="M141.742 202.697C144.496 206.531 148.114 208.69 151.678 208.69C154.701 208.69 157.563 207.125 159.885 204.101C165.879 196.433 171.548 188.28 176.732 179.964C168.309 174.726 160.101 169.003 152.272 162.901C148.438 159.931 146.386 155.989 146.44 151.94C146.548 147.35 149.14 142.976 153.783 139.628C162.207 133.527 169.065 126.993 170.415 123.699C173.546 116.032 167.769 106.312 157.509 102.1C154.377 100.804 151.03 100.157 147.844 100.157C140.824 100.157 135.208 103.288 133.103 108.364C132.671 109.336 132.131 110.686 131.429 112.252C130.403 114.628 129.107 117.544 127.811 120.729C126.245 124.563 123.275 126.777 119.657 126.777C115.986 126.777 112.098 124.509 108.75 120.351C101.46 111.442 94.6028 101.938 88.3391 91.949C83.2634 100.049 77.7017 107.986 71.816 115.546C68.8462 119.325 65.1204 121.377 61.0706 121.377C56.4809 121.377 51.9451 118.677 48.5433 114.034C42.4417 105.556 35.908 98.7526 32.6142 97.4027C31.2103 96.8627 29.7524 96.5387 28.2405 96.5387C21.4368 96.5387 14.3632 102.208 11.0154 110.308C6.80366 120.621 9.61151 131.529 17.2791 134.715C18.251 135.147 19.601 135.687 21.1669 136.389C23.5427 137.414 26.4586 138.71 29.6444 140.006C33.0462 141.41 35.1521 143.84 35.6381 146.918C36.232 150.86 33.9101 155.341 29.3204 159.121C20.0869 166.681 10.2055 173.754 -0.0539551 180.126C6.1557 190.115 13.1213 199.835 20.6269 209.014C23.3267 212.362 26.4046 214.252 29.0504 214.252C31.9123 214.252 33.4242 212.038 34.1801 210.202C35.4761 207.017 36.772 204.101 37.7979 201.725C38.4999 200.159 39.0399 198.809 39.4718 197.837C42.0637 191.519 48.8673 187.632 57.1828 187.632C60.8006 187.632 64.5804 188.388 68.0902 189.846C80.0236 194.759 86.6112 206.369 82.7774 215.71C80.8875 220.408 72.032 227.967 65.0664 232.989C61.2866 235.689 59.1267 239.253 59.0727 242.763C59.0187 245.84 60.5847 248.756 63.6625 251.132C71.492 257.234 79.7536 263.065 88.3931 268.357C98.6525 262.039 108.588 254.966 117.929 247.298C121.601 244.328 123.545 240.873 123.113 238.119C122.735 235.689 120.737 234.393 119.117 233.745C115.878 232.449 112.962 231.153 110.586 230.127C109.074 229.479 107.724 228.885 106.752 228.507C97.4106 224.674 93.8468 211.822 98.7605 199.889C102.648 190.439 110.748 184.068 118.955 184.068C120.899 184.068 122.789 184.446 124.571 185.148C129.161 186.93 136.72 195.785 141.742 202.697Z" fill="black"/>
<path d="M154.323 160.471C161.991 166.465 170.145 172.135 178.46 177.372C183.698 168.949 189.421 160.741 195.523 152.912C198.493 149.132 202.219 147.08 206.268 147.08C210.858 147.08 215.394 149.78 218.796 154.424C224.897 162.847 231.431 169.705 234.725 171.055C236.129 171.595 237.587 171.919 239.099 171.919C245.902 171.919 252.976 166.249 256.324 158.149C260.535 147.836 257.728 136.929 250.06 133.743C249.034 133.311 247.738 132.717 246.172 132.069C243.85 131.043 240.881 129.747 237.749 128.451C234.347 127.047 232.241 124.617 231.755 121.539C231.161 117.598 233.483 113.116 238.073 109.39C246.982 102.1 256.486 95.2428 266.475 88.9792C258.322 83.9035 250.384 78.3418 242.878 72.4561C239.045 69.4863 236.993 65.5445 237.047 61.4947C237.155 56.905 239.747 52.5312 244.39 49.1834C252.868 43.0818 259.672 36.5481 261.021 33.2543C264.153 25.5868 258.376 15.8673 248.062 11.6555C244.93 10.3596 241.583 9.71164 238.397 9.71164C231.377 9.71164 225.761 12.8435 223.656 17.9192C223.224 18.8911 222.684 20.241 221.982 21.753C220.956 24.1288 219.66 27.0447 218.364 30.2305C216.798 34.0643 213.828 36.2782 210.21 36.2782C206.538 36.2782 202.651 34.0103 199.249 29.8525C191.689 20.619 184.616 10.7376 178.244 0.478149C168.255 6.6878 158.535 13.6534 149.41 21.159C145.738 24.1288 143.794 27.5846 144.226 30.3385C144.604 32.7684 146.602 34.0643 148.222 34.7122C151.354 36.0082 154.269 37.2501 156.591 38.276C158.211 38.978 159.615 39.572 160.587 40.0039C169.929 43.8377 173.492 56.689 168.579 68.6223C164.691 78.0718 156.591 84.4435 148.384 84.4435C146.44 84.4435 144.55 84.0655 142.768 83.3635C138.07 81.4736 130.511 72.6181 125.489 65.6525C122.735 61.8187 119.117 59.6588 115.554 59.6588C112.53 59.6588 109.668 61.2248 107.346 64.2486C101.244 72.0242 95.4127 80.3397 90.121 88.9792C96.4386 99.2386 103.566 109.174 111.234 118.516C113.934 121.863 117.011 123.753 119.657 123.753C122.519 123.753 124.031 121.539 124.787 119.703C126.083 116.464 127.379 113.548 128.405 111.172C129.053 109.66 129.647 108.31 130.079 107.338C132.671 101.021 139.474 97.1327 147.79 97.1327C151.408 97.1327 155.187 97.8887 158.697 99.3466C170.63 104.26 177.218 115.87 173.384 125.211C171.44 129.909 162.639 137.468 155.673 142.49C151.894 145.19 149.734 148.754 149.68 152.264C149.68 155.18 151.3 158.095 154.323 160.471Z" fill="#B3B3B3"/>
<path d="M232.349 293.412C235.103 297.246 238.721 299.405 242.231 299.405C245.254 299.405 248.116 297.839 250.438 294.816C256.594 286.986 262.371 278.671 267.663 270.085C261.345 259.826 254.218 249.89 246.604 240.549C243.904 237.201 240.827 235.311 238.181 235.311C235.319 235.311 233.807 237.525 233.051 239.361C231.701 242.655 230.405 245.624 229.379 248C228.731 249.512 228.191 250.754 227.759 251.726C225.167 258.044 218.364 261.931 210.048 261.931C206.431 261.931 202.651 261.176 199.141 259.718C187.208 254.804 180.62 243.195 184.454 233.853C186.398 229.155 195.199 221.596 202.165 216.574C205.945 213.874 208.104 210.31 208.158 206.801C208.212 203.723 206.647 200.807 203.623 198.431C195.955 192.437 187.802 186.768 179.486 181.584C174.248 190.008 168.525 198.215 162.423 206.045C159.453 209.824 155.727 211.876 151.678 211.876C147.088 211.876 142.552 209.176 139.15 204.533C133.049 196.109 126.515 189.252 123.221 187.902C121.817 187.362 120.359 187.038 118.847 187.038C112.044 187.038 104.97 192.707 101.622 200.807C97.4106 211.12 100.218 222.028 107.886 225.214C108.858 225.592 110.154 226.185 111.666 226.833C114.042 227.859 117.012 229.155 120.251 230.505C123.653 231.909 125.759 234.339 126.191 237.417C126.785 241.359 124.463 245.84 119.873 249.566C110.964 256.91 101.406 263.767 91.4709 269.977C99.5705 275.053 107.508 280.614 115.068 286.5C118.901 289.47 120.953 293.412 120.845 297.462C120.737 302.051 118.145 306.425 113.502 309.773C105.078 315.874 98.2206 322.408 96.8706 325.702C93.7388 333.37 99.5165 343.089 109.83 347.301C112.962 348.597 116.31 349.245 119.495 349.245C126.515 349.245 132.131 346.113 134.237 341.037C134.669 340.011 135.209 338.715 135.91 337.149C136.936 334.827 138.232 331.858 139.528 328.672C141.094 324.838 144.064 322.624 147.682 322.624C151.354 322.624 155.241 324.892 158.643 329.05C166.203 338.283 173.276 348.165 179.648 358.424C189.637 352.214 199.357 345.303 208.536 337.743C212.208 334.773 214.152 331.318 213.72 328.564C213.342 326.134 211.344 324.838 209.724 324.19C206.539 322.894 203.623 321.598 201.301 320.572C199.681 319.87 198.385 319.276 197.359 318.898C188.018 315.065 184.454 302.213 189.367 290.28C193.255 280.83 201.409 274.513 209.562 274.513C211.506 274.513 213.396 274.891 215.178 275.593C219.768 277.591 227.327 286.446 232.349 293.412Z" fill="#0FAB64"/>
</g>
<defs>
<clipPath id="clip0_3524_2554">
<rect width="358" height="358" fill="white" transform="translate(0 0.532227)"/>
</clipPath>
</defs>
</svg>
