<svg width="81" height="80" viewBox="0 0 81 80" fill="none" xmlns="http://www.w3.org/2000/svg">
<g clip-path="url(#clip0_3122_3611)">
<g clip-path="url(#clip1_3122_3611)">
<path d="M58.3152 41.8174C49.8629 47.2914 43.6082 38.2593 43.6082 38.2593C40.6217 34.3181 38.4805 38.3688 38.4805 38.3688C36.9027 42.0911 34.6488 41.7079 33.2964 41.1058C32.6202 40.7774 32.2821 40.011 32.5075 39.2994L33.5218 35.9603C33.9726 34.4823 35.0432 33.278 36.5083 32.6759L40.34 31.0337C41.6924 30.4316 42.932 30.5958 44.6225 30.9242L54.5398 33.2233L58.3152 41.8174Z" stroke="black" stroke-width="2" stroke-miterlimit="10" stroke-linecap="round" stroke-linejoin="round"/>
<path d="M60.3999 46.5798L53.8634 48.6051L49.75 43.0764C49.75 43.0764 54.5396 44.9923 58.2586 41.8174L60.3999 46.5798Z" stroke="black" stroke-width="2" stroke-miterlimit="10" stroke-linecap="round" stroke-linejoin="round"/>
<path d="M19.322 28.6252L26.76 31.6358L20.1672 46.5798L12.9546 43.8428" stroke="black" stroke-width="2" stroke-miterlimit="10" stroke-linecap="round" stroke-linejoin="round"/>
<path d="M61.9781 30.1579L54.54 33.2233L61.1328 48.1125L68.3454 45.3755" stroke="black" stroke-width="2" stroke-miterlimit="10" stroke-linecap="round" stroke-linejoin="round"/>
<path d="M49.2992 43.0217L54.9341 49.8642C55.3849 50.4116 55.4976 51.0684 55.2722 51.7253C54.7087 53.3128 52.6238 53.7507 51.4405 52.4917L43.7207 44.5544" stroke="black" stroke-width="2" stroke-miterlimit="10" stroke-linecap="round" stroke-linejoin="round"/>
<path d="M40.2832 48.2767L46.7633 54.9002C48.5101 56.7066 51.6093 56.0497 52.3982 53.6959C52.3982 53.6412 52.3982 53.6412 52.4545 53.5864" stroke="black" stroke-width="2" stroke-miterlimit="10" stroke-linecap="round" stroke-linejoin="round"/>
<path d="M37.1846 51.3969L42.5377 57.1993C43.1575 57.8561 43.9464 58.294 44.848 58.3488C45.8623 58.4035 47.1583 58.0203 48.2289 56.3234" stroke="black" stroke-width="2" stroke-miterlimit="10" stroke-linecap="round" stroke-linejoin="round"/>
<path d="M37.5223 32.238C32.6764 31.1432 26.7598 31.6358 26.7598 31.6358" stroke="black" stroke-width="2" stroke-miterlimit="10" stroke-linecap="round" stroke-linejoin="round"/>
<path d="M21.3506 43.9523C21.3506 43.9523 28.7886 48.9336 36.9028 56.6519L39.4385 59.0057C40.6782 60.2099 42.8758 59.5531 43.1575 57.8561V57.8014" stroke="black" stroke-width="2" stroke-miterlimit="10" stroke-linecap="round" stroke-linejoin="round"/>
<path d="M25.6331 47.0724L24.9569 47.784C24.3371 48.4956 24.3934 49.5904 25.1259 50.1926C25.9148 50.7947 27.0981 50.74 27.718 49.9736L28.3378 49.262" stroke="black" stroke-width="2" stroke-miterlimit="10" stroke-linecap="round" stroke-linejoin="round"/>
<path d="M31.8313 52.1085L30.3662 53.6412C29.5773 54.4623 28.2813 54.517 27.4361 53.8054C26.5345 53.039 26.4782 51.78 27.2107 50.9042L28.5631 49.3715" stroke="black" stroke-width="2" stroke-miterlimit="10" stroke-linecap="round" stroke-linejoin="round"/>
<path d="M31.8314 52.1085L30.8735 53.0938C30.0846 53.9149 30.141 55.2287 30.9862 55.995C31.8314 56.7614 33.1838 56.7066 33.9727 55.8855L34.9306 54.8455" stroke="black" stroke-width="2" stroke-miterlimit="10" stroke-linecap="round" stroke-linejoin="round"/>
<path d="M37.8607 57.5277L37.3535 58.0203C36.5647 58.7867 35.325 58.7867 34.5361 58.0751C33.7472 57.3635 33.6909 56.1045 34.4798 55.3381L34.8742 54.9549" stroke="black" stroke-width="2" stroke-miterlimit="10" stroke-linecap="round" stroke-linejoin="round"/>
<path d="M3.99512 49.0431L9.79902 51.2874L20.1672 26.6545L3.99512 20.25" stroke="black" stroke-width="2" stroke-miterlimit="10" stroke-linecap="round" stroke-linejoin="round"/>
<path d="M77.3049 50.6305L71.501 52.8201L61.1328 28.1873L77.3049 21.7827" stroke="black" stroke-width="2" stroke-miterlimit="10" stroke-linecap="round" stroke-linejoin="round"/>
<path d="M8.16504 25.4503C9.91185 28.8441 10.6444 32.6759 10.3063 36.4529L9.79915 42.5838L15.7721 28.4609L8.16504 25.4503Z" fill="#0FAB64"/>
<path d="M73.0221 26.4356C71.2753 29.8294 70.5428 33.6612 70.8809 37.4382L71.388 43.5691L65.415 29.4463L73.0221 26.4356Z" fill="#0FAB64"/>
</g>
</g>
<defs>
<clipPath id="clip0_3122_3611">
<rect width="75.2" height="69.5" fill="white" transform="translate(3.1499 5.25)"/>
</clipPath>
<clipPath id="clip1_3122_3611">
<rect width="75" height="41" fill="white" transform="translate(3.1499 19.25)"/>
</clipPath>
</defs>
</svg>
