<svg width="81" height="80" viewBox="0 0 81 80" fill="none" xmlns="http://www.w3.org/2000/svg">
<g clip-path="url(#clip0_3052_325)">
<path d="M56.7461 67.539C56.7461 69.2267 58.0658 70.5563 59.7408 70.5563C61.4158 70.5563 62.7355 69.2267 62.7355 67.539C62.7355 65.8514 61.5173 65.0843 59.7408 64.5218C58.1673 64.0104 56.7461 63.1921 56.7461 61.5045C56.7461 59.8169 58.0658 58.4872 59.7408 58.4872C61.4158 58.4872 62.7355 59.8169 62.7355 61.5045" stroke="black" stroke-width="2" stroke-miterlimit="10" stroke-linecap="round" stroke-linejoin="round"/>
<path d="M59.7407 56.7996V58.4872" stroke="black" stroke-width="2" stroke-miterlimit="10" stroke-linecap="round" stroke-linejoin="round"/>
<path d="M59.7407 70.5052V72.244" stroke="black" stroke-width="2" stroke-miterlimit="10" stroke-linecap="round" stroke-linejoin="round"/>
<path d="M59.7407 76.2329C66.1601 76.2329 71.3642 70.9896 71.3642 64.5218C71.3642 58.0539 66.1601 52.8106 59.7407 52.8106C53.3212 52.8106 48.1172 58.0539 48.1172 64.5218C48.1172 70.9896 53.3212 76.2329 59.7407 76.2329Z" stroke="black" stroke-width="2" stroke-miterlimit="10" stroke-linecap="round" stroke-linejoin="round"/>
<path d="M47.0513 16.0919V13.4837C47.0513 11.4893 45.4271 9.85278 43.4475 9.85278C41.468 9.85278 39.8438 11.4893 39.8438 13.4837V16.0919" stroke="black" stroke-width="2" stroke-miterlimit="10" stroke-linecap="round" stroke-linejoin="round"/>
<path d="M43.397 9.85278V3.76709" stroke="black" stroke-width="2" stroke-miterlimit="10" stroke-linecap="round" stroke-linejoin="round"/>
<path d="M54.2082 50.8162V35.2695C54.2082 29.2861 49.3862 24.4278 43.4476 24.4278C37.4582 24.4278 32.6362 29.2861 32.6362 35.2695V69.7892" stroke="black" stroke-width="2" stroke-miterlimit="10" stroke-linecap="round" stroke-linejoin="round"/>
<path d="M51.4671 28.0587V24.0698C51.4671 19.5694 47.8633 15.9385 43.3966 15.9385C38.93 15.9385 35.3262 19.5694 35.3262 24.0698V28.0587" stroke="black" stroke-width="2" stroke-miterlimit="10" stroke-linecap="round" stroke-linejoin="round"/>
<path d="M47.7114 47.1852V48.6683" stroke="black" stroke-width="2" stroke-miterlimit="10" stroke-linecap="round" stroke-linejoin="round"/>
<path d="M47.7114 52.0435V53.5266" stroke="black" stroke-width="2" stroke-miterlimit="10" stroke-linecap="round" stroke-linejoin="round"/>
<path d="M43.397 47.1852V48.6683" stroke="black" stroke-width="2" stroke-miterlimit="10" stroke-linecap="round" stroke-linejoin="round"/>
<path d="M43.397 52.0435V53.5266" stroke="black" stroke-width="2" stroke-miterlimit="10" stroke-linecap="round" stroke-linejoin="round"/>
<path d="M43.397 56.9019V58.3849" stroke="black" stroke-width="2" stroke-miterlimit="10" stroke-linecap="round" stroke-linejoin="round"/>
<path d="M39.1333 47.1852V48.6683" stroke="black" stroke-width="2" stroke-miterlimit="10" stroke-linecap="round" stroke-linejoin="round"/>
<path d="M39.1333 52.0435V53.5266" stroke="black" stroke-width="2" stroke-miterlimit="10" stroke-linecap="round" stroke-linejoin="round"/>
<path d="M39.1333 56.9019V58.3849" stroke="black" stroke-width="2" stroke-miterlimit="10" stroke-linecap="round" stroke-linejoin="round"/>
<path d="M47.7114 42.3269V43.8099" stroke="black" stroke-width="2" stroke-miterlimit="10" stroke-linecap="round" stroke-linejoin="round"/>
<path d="M43.397 42.3269V43.8099" stroke="black" stroke-width="2" stroke-miterlimit="10" stroke-linecap="round" stroke-linejoin="round"/>
<path d="M39.1333 42.3269V43.8099" stroke="black" stroke-width="2" stroke-miterlimit="10" stroke-linecap="round" stroke-linejoin="round"/>
<path d="M58.7762 36.8037H54.208" stroke="black" stroke-width="2" stroke-miterlimit="10" stroke-linecap="round" stroke-linejoin="round"/>
<path d="M72.9883 56.9018V36.8037" stroke="black" stroke-width="2" stroke-miterlimit="10" stroke-linecap="round" stroke-linejoin="round"/>
<path d="M7.51123 36.3434V69.7892" stroke="black" stroke-width="2" stroke-miterlimit="10" stroke-linecap="round" stroke-linejoin="round"/>
<path d="M27.9663 69.7892V36.3434" stroke="black" stroke-width="2" stroke-miterlimit="10" stroke-linecap="round" stroke-linejoin="round"/>
<path d="M25.2254 34.1444V28.3144H10.252V34.1444" stroke="black" stroke-width="2" stroke-miterlimit="10" stroke-linecap="round" stroke-linejoin="round"/>
<path d="M22.7385 28.3144V23.8652C22.7385 22.8936 21.9771 22.1265 21.0127 22.1265H14.4142C13.4498 22.1265 12.6885 22.8936 12.6885 23.8652V28.3144" stroke="black" stroke-width="2" stroke-miterlimit="10" stroke-linecap="round" stroke-linejoin="round"/>
<path d="M7.51123 45.1907V35.9343C7.51123 34.9115 8.32335 34.1444 9.28775 34.1444H13.3484V44.219" stroke="black" stroke-width="2" stroke-miterlimit="10" stroke-linecap="round" stroke-linejoin="round"/>
<path d="M22.0786 44.1679V34.1444H26.1392C27.1544 34.1444 27.9157 34.9627 27.9157 35.9343V45.1907" stroke="black" stroke-width="2" stroke-miterlimit="10" stroke-linecap="round" stroke-linejoin="round"/>
<path d="M43.3968 27.4962C39.1332 27.4962 35.6816 30.9737 35.6816 35.2695V36.8037H51.1627V35.2695C51.1627 30.9737 47.6604 27.4962 43.3968 27.4962Z" fill="#0FAB64"/>
<path d="M12.6377 48.2592H16.14" stroke="black" stroke-width="2" stroke-miterlimit="10" stroke-linecap="round" stroke-linejoin="round"/>
<path d="M12.6377 51.8901H16.14" stroke="black" stroke-width="2" stroke-miterlimit="10" stroke-linecap="round" stroke-linejoin="round"/>
<path d="M12.6377 55.5211H16.14" stroke="black" stroke-width="2" stroke-miterlimit="10" stroke-linecap="round" stroke-linejoin="round"/>
<path d="M12.6377 59.152H16.14" stroke="black" stroke-width="2" stroke-miterlimit="10" stroke-linecap="round" stroke-linejoin="round"/>
<path d="M62.9385 37.1617H68.8264" stroke="black" stroke-width="2" stroke-miterlimit="10" stroke-linecap="round" stroke-linejoin="round"/>
<path d="M62.9385 41.5086H68.8264" stroke="black" stroke-width="2" stroke-miterlimit="10" stroke-linecap="round" stroke-linejoin="round"/>
<path d="M62.9385 45.8556H68.8264" stroke="black" stroke-width="2" stroke-miterlimit="10" stroke-linecap="round" stroke-linejoin="round"/>
<path d="M22.8402 48.2592H19.3379" stroke="black" stroke-width="2" stroke-miterlimit="10" stroke-linecap="round" stroke-linejoin="round"/>
<path d="M22.8402 51.8901H19.3379" stroke="black" stroke-width="2" stroke-miterlimit="10" stroke-linecap="round" stroke-linejoin="round"/>
<path d="M22.8402 55.5211H19.3379" stroke="black" stroke-width="2" stroke-miterlimit="10" stroke-linecap="round" stroke-linejoin="round"/>
<path d="M22.8402 59.152H19.3379" stroke="black" stroke-width="2" stroke-miterlimit="10" stroke-linecap="round" stroke-linejoin="round"/>
<path d="M72.9885 36.8037C72.9885 32.8659 69.7908 29.6441 65.8824 29.6441C61.9741 29.6441 58.7764 32.8659 58.7764 36.8037" stroke="black" stroke-width="2" stroke-miterlimit="10" stroke-linecap="round" stroke-linejoin="round"/>
<path d="M65.8823 29.6441V26.0131" stroke="black" stroke-width="2" stroke-miterlimit="10" stroke-linecap="round" stroke-linejoin="round"/>
<path d="M58.7764 36.8037V49.6911" stroke="black" stroke-width="2" stroke-miterlimit="10" stroke-linecap="round" stroke-linejoin="round"/>
<path d="M17.7642 22.1265V14.5066" stroke="black" stroke-width="2" stroke-miterlimit="10" stroke-linecap="round" stroke-linejoin="round"/>
</g>
<defs>
<clipPath id="clip0_3052_325">
<rect width="67" height="74" fill="white" transform="translate(6.75 3)"/>
</clipPath>
</defs>
</svg>
