<svg width="81" height="80" viewBox="0 0 81 80" fill="none" xmlns="http://www.w3.org/2000/svg">
<g clip-path="url(#clip0_3122_3632)">
<path d="M69.7969 65.2852V76.6149" stroke="black" stroke-width="2" stroke-miterlimit="10" stroke-linecap="round" stroke-linejoin="round"/>
<path d="M64.7546 46.6839C68.7009 44.8506 70.4337 40.1221 68.6248 36.1224C66.8159 32.1227 62.1504 30.3665 58.2041 32.1998C54.2577 34.0332 52.525 38.7617 54.3338 42.7614C56.1427 46.7611 60.8082 48.5172 64.7546 46.6839Z" stroke="black" stroke-width="2" stroke-miterlimit="10" stroke-linecap="round" stroke-linejoin="round"/>
<path d="M46.5664 76.6149V56.5519C46.5664 53.7195 48.8371 51.3592 51.6899 51.3592H71.3107C74.1054 51.3592 76.4342 53.6605 76.4342 56.5519V76.6149" stroke="black" stroke-width="2" stroke-miterlimit="10" stroke-linecap="round" stroke-linejoin="round"/>
<path d="M53.1455 76.6149V65.2852" stroke="black" stroke-width="2" stroke-miterlimit="10" stroke-linecap="round" stroke-linejoin="round"/>
<path d="M4.12305 5.03737V28.8769C4.12305 29.821 4.87993 30.5291 5.75326 30.5291H41.7926C42.2002 30.5291 42.6659 30.7061 42.957 31.0012L48.0806 36.1939V30.5291V5.03737C48.0806 4.09324 47.3237 3.38513 46.4503 3.38513H5.75326C4.87993 3.38513 4.12305 4.15224 4.12305 5.03737Z" stroke="black" stroke-width="2" stroke-miterlimit="10" stroke-linecap="round" stroke-linejoin="round"/>
<path d="M21.9971 19.1995C21.9971 20.6157 23.1615 21.7958 24.5588 21.7958C25.9562 21.7958 27.1206 20.6157 27.1206 19.1995C27.1206 17.7832 26.0726 17.0751 24.5588 16.6031C23.2197 16.131 21.9971 15.4229 21.9971 14.0067C21.9971 12.5905 23.1615 11.4103 24.5588 11.4103C25.9562 11.4103 27.1206 12.5905 27.1206 14.0067" stroke="black" stroke-width="2" stroke-miterlimit="10" stroke-linecap="round" stroke-linejoin="round"/>
<path d="M24.5586 9.93509V11.4103" stroke="black" stroke-width="2" stroke-miterlimit="10" stroke-linecap="round" stroke-linejoin="round"/>
<path d="M24.5586 21.7958V23.2711" stroke="black" stroke-width="2" stroke-miterlimit="10" stroke-linecap="round" stroke-linejoin="round"/>
<path d="M34.1816 18.9923C35.4876 13.6127 32.2434 8.17875 26.9355 6.85519C21.6277 5.53163 16.2662 8.81967 14.9603 14.1992C13.6544 19.5788 16.8986 25.0127 22.2064 26.3363C27.5142 27.6599 32.8757 24.3718 34.1816 18.9923Z" stroke="black" stroke-width="2" stroke-miterlimit="10" stroke-linecap="round" stroke-linejoin="round"/>
<path d="M72.8835 63.928V56.5519C72.8835 55.6668 72.1849 54.8997 71.2533 54.8997H51.6908C50.8174 54.8997 50.0605 55.6078 50.0605 56.5519V63.928L51.1085 62.3938C52.6805 59.9744 55.417 58.4992 58.2698 58.4992H64.6742C67.5853 58.4992 70.2635 59.9744 71.8355 62.3938L72.8835 63.928Z" fill="#0FAB64"/>
</g>
<defs>
<clipPath id="clip0_3122_3632">
<rect width="74" height="75" fill="white" transform="translate(3.25 2.5)"/>
</clipPath>
</defs>
</svg>
