<svg width="80" height="81" viewBox="0 0 80 81" fill="none" xmlns="http://www.w3.org/2000/svg">
<path d="M76.5663 79.02H7.46875V11.6179" stroke="black" stroke-width="2" stroke-linecap="round" stroke-linejoin="round"/>
<path d="M54.2979 57.8872H71.4659" stroke="black" stroke-width="2" stroke-linecap="round" stroke-linejoin="round"/>
<path d="M54.2979 64.8757H71.4659" stroke="black" stroke-width="2" stroke-linecap="round" stroke-linejoin="round"/>
<path d="M54.2979 71.8704H71.4659" stroke="black" stroke-width="2" stroke-linecap="round" stroke-linejoin="round"/>
<path d="M64.6455 10.1288C67.1663 10.1288 69.2098 8.08519 69.2098 5.56435C69.2098 3.04352 67.1663 1 64.6455 1C62.1246 1 60.0811 3.04352 60.0811 5.56435C60.0811 8.08519 62.1246 10.1288 64.6455 10.1288Z" stroke="black" stroke-width="2" stroke-linecap="round" stroke-linejoin="round"/>
<path d="M61.377 30.978V46.8309" stroke="black" stroke-width="2" stroke-linecap="round" stroke-linejoin="round"/>
<path d="M67.9072 46.5601V30.978" stroke="black" stroke-width="2" stroke-linecap="round" stroke-linejoin="round"/>
<path d="M64.6454 17.5361V19.4379C64.6454 21.3011 63.1367 22.8096 61.2736 22.8096H52.4736" stroke="black" stroke-width="2" stroke-linecap="round" stroke-linejoin="round"/>
<path d="M67.908 50.8987V46.5599H62.873C60.4748 46.5599 58.5342 48.5004 58.5342 50.8987" stroke="black" stroke-width="2" stroke-linecap="round" stroke-linejoin="round"/>
<path d="M59.3525 20.3276V18.1356C59.3525 15.2152 61.7186 12.8492 64.639 12.8492C67.5595 12.8492 69.9254 15.2152 69.9254 18.1356V22.8741C69.9254 25.6978 69.2291 28.4829 67.9011 30.9714H61.3704C60.455 29.2501 59.8361 27.3934 59.546 25.4786" stroke="black" stroke-width="2" stroke-linecap="round" stroke-linejoin="round"/>
<path d="M54.2979 79.0199V50.8987H71.4659V79.0199" stroke="black" stroke-width="2" stroke-linecap="round" stroke-linejoin="round"/>
<path d="M4 10.1739L7.52 6.65393L10.9304 10.0772" stroke="black" stroke-width="2" stroke-linecap="round" stroke-linejoin="round"/>
<path d="M40.1279 21.9718L44.0927 18.9546L47.0067 22.8098" stroke="black" stroke-width="2" stroke-linecap="round" stroke-linejoin="round"/>
<path d="M4 17.504H10.9304" stroke="black" stroke-width="2" stroke-linecap="round" stroke-linejoin="round"/>
<path d="M4 27.9028H10.9304" stroke="black" stroke-width="2" stroke-linecap="round" stroke-linejoin="round"/>
<path d="M4 38.2952H10.9304" stroke="black" stroke-width="2" stroke-linecap="round" stroke-linejoin="round"/>
<path d="M4 48.694H10.9304" stroke="black" stroke-width="2" stroke-linecap="round" stroke-linejoin="round"/>
<path d="M4 59.0863H10.9304" stroke="black" stroke-width="2" stroke-linecap="round" stroke-linejoin="round"/>
<path d="M4 69.4851H10.9304" stroke="black" stroke-width="2" stroke-linecap="round" stroke-linejoin="round"/>
<path d="M16.1719 69.485L19.5565 59.228H26.8092L31.8055 38.295H40.3412L43.3906 23.6606" stroke="black" stroke-width="2" stroke-linecap="round" stroke-linejoin="round"/>
<circle cx="27.5627" cy="38.2952" r="0.96703" fill="black" stroke="black" stroke-width="2" stroke-linecap="round" stroke-linejoin="round"/>
<path d="M23.199 38.2952H16.6426" stroke="black" stroke-width="2" stroke-linecap="round" stroke-linejoin="round"/>
<circle cx="14.4504" cy="38.2952" r="0.96703" fill="black" stroke="black" stroke-width="2" stroke-linecap="round" stroke-linejoin="round"/>
<circle cx="37.3625" cy="17.5039" r="0.96703" fill="black" stroke="black" stroke-width="2" stroke-linecap="round" stroke-linejoin="round"/>
<path d="M33.5526 17.504H16.3652" stroke="black" stroke-width="2" stroke-linecap="round" stroke-linejoin="round"/>
<circle cx="14.4504" cy="17.504" r="0.96703" fill="black" stroke="black" stroke-width="2" stroke-linecap="round" stroke-linejoin="round"/>
<path d="M46.4594 27.9028L44.1256 39.0817L43.4874 42.1633H40.3413H34.8551L30.5679 60.1243L29.8588 63.0963H26.8094H22.3546L21.207 66.5647H33.2627L38.259 45.3223H45.7761L49.5668 27.9028H46.4594Z" fill="#0FAB64"/>
</svg>
