<svg width="80" height="80" viewBox="0 0 80 80" fill="none" xmlns="http://www.w3.org/2000/svg">
<path d="M11 1V9.46861L29.7811 30.637L40.3683 20.2696L11 1Z" stroke="black" stroke-width="2" stroke-linecap="round" stroke-linejoin="round"/>
<path d="M69.7365 1V9.46861L50.9554 30.637L40.3682 20.2696L69.7365 1Z" stroke="black" stroke-width="2" stroke-linecap="round" stroke-linejoin="round"/>
<path d="M11 1H69.7366" stroke="black" stroke-width="2" stroke-linecap="round" stroke-linejoin="round"/>
<path d="M47.8124 27.5598L40.3696 34.85L32.9268 27.5598" stroke="black" stroke-width="2" stroke-linecap="round" stroke-linejoin="round"/>
<path d="M44.0619 31.2354L51.4253 67.845L40.3679 79.0001L29.3105 67.845L36.674 31.2354" stroke="black" stroke-width="2" stroke-linecap="round" stroke-linejoin="round"/>
<path d="M40.3697 73.7918L47.4523 66.6481L45.3703 56.3051L40.3697 61.1042C40.3697 61.1042 38.3243 59.01 35.418 56.0548L33.2871 66.6481C35.0517 68.431 38.1534 71.5571 40.3697 73.7918Z" fill="#0FAB64"/>
</svg>
