<svg width="81" height="80" viewBox="0 0 81 80" fill="none" xmlns="http://www.w3.org/2000/svg">
<g clip-path="url(#clip0_3122_3820)">
<path d="M49.5392 22.9492H31.4616C30.6198 22.9492 29.9785 22.2751 29.9785 21.482V9.46716C29.9785 8.6741 30.6599 8 31.4616 8H49.5392C50.3809 8 51.0222 8.6741 51.0222 9.46716V21.482C51.0222 22.3147 50.3809 22.9492 49.5392 22.9492ZM32.9447 20.0149H48.0561V10.9343H32.9447V20.0149Z" fill="black"/>
<path d="M40.5602 28.5799C39.7185 28.5799 39.0771 27.9058 39.0771 27.1128V21.4821C39.0771 20.689 39.7586 20.0149 40.5602 20.0149C41.402 20.0149 42.0433 20.689 42.0433 21.4821V27.1128C42.0433 27.9058 41.3619 28.5799 40.5602 28.5799Z" fill="black"/>
<path d="M44.2884 28.58H36.6725C35.8308 28.58 35.1895 27.9059 35.1895 27.1128C35.1895 26.3197 35.8709 25.6456 36.6725 25.6456H44.2884C45.1301 25.6456 45.7714 26.3197 45.7714 27.1128C45.7714 27.9059 45.1301 28.58 44.2884 28.58Z" fill="black"/>
<path d="M49.5392 66.3692H31.4616C30.6198 66.3692 29.9785 65.6951 29.9785 64.9021V52.8872C29.9785 52.0941 30.6599 51.42 31.4616 51.42H49.5392C50.3809 51.42 51.0222 52.0941 51.0222 52.8872V64.9021C51.0222 65.6951 50.3809 66.3692 49.5392 66.3692ZM32.9447 63.4349H48.0561V54.3544H32.9447V63.4349Z" fill="black"/>
<path d="M40.5602 72C39.7185 72 39.0771 71.3259 39.0771 70.5328V64.9021C39.0771 64.109 39.7586 63.4349 40.5602 63.4349C41.402 63.4349 42.0433 64.109 42.0433 64.9021V70.5328C42.0433 71.3259 41.3619 72 40.5602 72Z" fill="black"/>
<path d="M44.2884 72H36.6725C35.8308 72 35.1895 71.3259 35.1895 70.5328C35.1895 69.7398 35.8709 69.0657 36.6725 69.0657H44.2884C45.1301 69.0657 45.7714 69.7398 45.7714 70.5328C45.7714 71.3259 45.1301 72 44.2884 72Z" fill="black"/>
<path d="M77.5167 66.3692H59.4391C58.5974 66.3692 57.9561 65.6951 57.9561 64.9021V52.8872C57.9561 52.0941 58.6375 51.42 59.4391 51.42H77.5167C78.3584 51.42 78.9998 52.0941 78.9998 52.8872V64.9021C78.9998 65.6951 78.3584 66.3692 77.5167 66.3692ZM60.9222 63.4349H76.0336V54.3544H60.9222V63.4349Z" fill="black"/>
<path d="M68.5378 72C67.696 72 67.0547 71.3259 67.0547 70.5328V64.9021C67.0547 64.109 67.7361 63.4349 68.5378 63.4349C69.3394 63.4349 70.0208 64.109 70.0208 64.9021V70.5328C70.0208 71.3259 69.3394 72 68.5378 72Z" fill="black"/>
<path d="M72.2659 72H64.6501C63.8083 72 63.167 71.3259 63.167 70.5328C63.167 69.7398 63.8484 69.0657 64.6501 69.0657H72.2659C73.1076 69.0657 73.749 69.7398 73.749 70.5328C73.749 71.3259 73.1076 72 72.2659 72Z" fill="black"/>
<path d="M21.6007 66.3692H3.48308C2.64133 66.3692 2 65.6951 2 64.9021V52.8872C2 52.0941 2.68142 51.42 3.48308 51.42H21.5606C22.4024 51.42 23.0437 52.0941 23.0437 52.8872V64.9021C23.0838 65.6951 22.4024 66.3692 21.6007 66.3692ZM4.96616 63.4349H20.0776V54.3544H4.96616V63.4349Z" fill="black"/>
<path d="M12.5817 72C11.74 72 11.0986 71.3259 11.0986 70.5328V64.9021C11.0986 64.109 11.78 63.4349 12.5817 63.4349C13.4235 63.4349 14.0648 64.109 14.0648 64.9021V70.5328C14.0648 71.3259 13.3834 72 12.5817 72Z" fill="black"/>
<path d="M16.3499 72H8.73406C7.89231 72 7.25098 71.3259 7.25098 70.5328C7.25098 69.7398 7.93239 69.0657 8.73406 69.0657H16.3499C17.1916 69.0657 17.833 69.7398 17.833 70.5328C17.833 71.3259 17.1515 72 16.3499 72Z" fill="black"/>
<path d="M40.5602 48.0496C39.7185 48.0496 39.0771 47.3755 39.0771 46.5824V33.4176C39.0771 32.6245 39.7586 31.9504 40.5602 31.9504C41.402 31.9504 42.0433 32.6245 42.0433 33.4176V46.5428C42.0433 47.3755 41.3619 48.0496 40.5602 48.0496Z" fill="#0FAB64"/>
<path d="M68.538 41.4672H12.5817C11.74 41.4672 11.0986 40.7931 11.0986 40C11.0986 39.2069 11.78 38.5328 12.5817 38.5328H68.538C69.3797 38.5328 70.0211 39.2069 70.0211 40C70.0211 40.7931 69.3397 41.4672 68.538 41.4672Z" fill="#0FAB64"/>
<path d="M68.5378 48.0496C67.696 48.0496 67.0547 47.3755 67.0547 46.5824V40C67.0547 39.2069 67.7361 38.5328 68.5378 38.5328C69.3394 38.5328 70.0208 39.2069 70.0208 40V46.5824C70.0208 47.3755 69.3394 48.0496 68.5378 48.0496Z" fill="#0FAB64"/>
<path d="M12.5817 48.0496C11.74 48.0496 11.0986 47.3755 11.0986 46.5824V40C11.0986 39.2069 11.78 38.5328 12.5817 38.5328C13.4235 38.5328 14.0648 39.2069 14.0648 40V46.5824C14.0648 47.3755 13.3834 48.0496 12.5817 48.0496Z" fill="#0FAB64"/>
</g>
<defs>
<clipPath id="clip0_3122_3820">
<rect width="77" height="64" fill="white" transform="translate(2 8)"/>
</clipPath>
</defs>
</svg>
