<svg width="80" height="80" viewBox="0 0 80 80" fill="none" xmlns="http://www.w3.org/2000/svg">
<path d="M44.3224 61.0623H48.0138C51.5356 61.0623 54.9758 60.0077 57.895 58.0239L60.5944 56.197C61.0402 55.8957 61.1908 55.2868 60.8958 54.841C60.4626 54.1944 59.9164 53.7298 59.3514 53.4034C58.0331 52.6375 56.4197 52.7003 55.0449 53.372C50.0478 55.8141 45.5968 53.755 45.5968 53.755C43.9772 52.738 42.4328 51.9533 40.9638 51.3506C34.799 48.8206 27.7428 49.7623 22.3125 53.6294" stroke="black" stroke-width="2" stroke-linecap="round" stroke-linejoin="round"/>
<path d="M22.3066 66.593C22.3066 66.593 30.6498 64.9733 45.2457 65.802C49.094 66.0217 52.936 65.1617 56.3448 63.36L78.5368 51.6519C79.0202 51.3945 79.1457 50.7667 78.813 50.3398C78.022 49.3228 76.214 47.9166 72.5917 48.8708C72.1836 48.9775 71.7819 49.1345 71.3926 49.2977L60.2307 54.0563" stroke="black" stroke-width="2" stroke-linecap="round" stroke-linejoin="round"/>
<path d="M13.875 71.942H22.0863V50.7607H13.875" stroke="black" stroke-width="2" stroke-linecap="round" stroke-linejoin="round"/>
<path d="M1 77.5605H13.8757V44.5708H1" stroke="black" stroke-width="2" stroke-linecap="round" stroke-linejoin="round"/>
<path d="M59.0996 34.633C57.3167 36.1459 55.0127 37.0625 52.4953 37.0625C46.8579 37.0625 42.2939 32.4922 42.2939 26.8611C42.2939 21.2299 46.8642 16.6597 52.4953 16.6597C55.0127 16.6597 57.323 17.5762 59.1059 19.0892" stroke="black" stroke-width="2" stroke-linecap="round" stroke-linejoin="round"/>
<path d="M39.7646 24.7454H51.253" stroke="black" stroke-width="2" stroke-linecap="round" stroke-linejoin="round"/>
<path d="M39.7646 28.9702H51.253" stroke="black" stroke-width="2" stroke-linecap="round" stroke-linejoin="round"/>
<path d="M62.6031 40.7959C70.2889 34.7413 71.6112 23.6024 65.5565 15.9165C59.5019 8.2307 48.363 6.9084 40.6772 12.9631C32.9913 19.0177 31.669 30.1566 37.7237 37.8424C43.7784 45.5283 54.9173 46.8506 62.6031 40.7959Z" stroke="black" stroke-width="2" stroke-linecap="round" stroke-linejoin="round"/>
<path d="M10.1084 48.3374H2.82617L2.845 48.419C4.77856 56.7559 4.91039 65.4067 3.21539 73.7938H10.1021V48.3374H10.1084Z" fill="#0FAB64"/>
</svg>
