<svg width="80" height="81" viewBox="0 0 80 81" fill="none" xmlns="http://www.w3.org/2000/svg">
<path d="M29.3874 62.1225H25.2391L21.8369 53.7782C21.6519 53.3246 21.9861 52.8291 22.4755 52.8291H57.5421C58.0315 52.8291 58.3598 53.3246 58.1808 53.7782L54.7786 62.1225H50.6302" stroke="black" stroke-width="2" stroke-linecap="round" stroke-linejoin="round"/>
<path d="M50.6196 79.5635V58.7981C50.6196 58.5414 50.4107 58.3325 50.154 58.3325H29.8542C29.5976 58.3325 29.3887 58.5414 29.3887 58.7981V79.5635" stroke="black" stroke-width="2" stroke-linecap="round" stroke-linejoin="round"/>
<path d="M59.6074 45.0221C63.5886 40.456 66 34.4872 66 27.9514C66 13.5906 54.3609 1.95142 40 1.95142C25.6391 1.95142 14 13.5906 14 27.9514C14 34.4813 16.4114 40.45 20.3866 45.0161" stroke="black" stroke-width="2" stroke-linecap="round" stroke-linejoin="round"/>
<path d="M47.0296 21.9846C47.9481 18.0929 45.5379 14.1934 41.6462 13.2749C37.7545 12.3564 33.8551 14.7666 32.9366 18.6583C32.018 22.55 34.4283 26.4494 38.32 27.368C42.2116 28.2865 46.1111 25.8763 47.0296 21.9846Z" stroke="black" stroke-width="2" stroke-linecap="round" stroke-linejoin="round"/>
<path d="M26.2119 48.9615V35.9794C26.2119 33.377 28.3189 31.27 30.9213 31.27H49.0723C51.6747 31.27 53.7817 33.377 53.7817 35.9794V48.9615" stroke="black" stroke-width="2" stroke-linecap="round" stroke-linejoin="round"/>
<path d="M39.999 31.27V39.6681" stroke="black" stroke-width="2" stroke-linecap="round" stroke-linejoin="round"/>
<path d="M31.9551 48.9615V40.856" stroke="black" stroke-width="2" stroke-linecap="round" stroke-linejoin="round"/>
<path d="M48.4824 48.9615V40.856" stroke="black" stroke-width="2" stroke-linecap="round" stroke-linejoin="round"/>
<path d="M32.9697 61.9136V71.6367L34.9991 70.443C38.0909 68.6285 41.9229 68.6285 45.0087 70.443L47.0381 71.6367V61.9136H32.9697Z" fill="#0FAB64"/>
</svg>
