<svg width="81" height="80" viewBox="0 0 81 80" fill="none" xmlns="http://www.w3.org/2000/svg">
<path d="M38.5747 58.0455H22.0547C21.3762 58.0455 21.1119 57.3429 21.6764 57.0471C23.6941 55.9871 25.0633 54.2922 25.4356 52.3878C25.922 49.9041 25.6938 47.3711 25.6938 47.3711" stroke="#333333" stroke-width="2" stroke-linecap="round" stroke-linejoin="round"/>
<path d="M36.6048 43.2975C36.6048 44.0124 36.0404 44.5856 35.3498 44.5856C34.6592 44.5856 34.0947 44.0062 34.0947 43.2975C34.0947 42.5887 34.6592 42.0094 35.3498 42.0094C36.0404 42.0094 36.6048 42.5887 36.6048 43.2975Z" fill="#0FAB64"/>
<path d="M40.9706 47.3709H5.51675C3.71524 47.3709 2.25 45.8733 2.25 44.0182V39.2172H15.0528" stroke="#333333" stroke-width="2" stroke-linecap="round" stroke-linejoin="round"/>
<path d="M49.6599 39.2172H2.25V4.63621C2.25 2.62705 3.83531 1 5.79296 1H64.9067C66.8644 1 68.4437 2.62705 68.4437 4.63621V20.1117" stroke="#333333" stroke-width="2" stroke-linecap="round" stroke-linejoin="round"/>
<path d="M28.5039 25.2579L38.6885 14.8053L43.1683 19.403L53.3528 8.95654" stroke="#333333" stroke-width="2" stroke-linecap="round" stroke-linejoin="round"/>
<path d="M48.8906 8.95654H53.3524V13.5295" stroke="#333333" stroke-width="2" stroke-linecap="round" stroke-linejoin="round"/>
<path d="M70.8037 61.583V78.9999" stroke="#333333" stroke-width="2" stroke-linecap="round" stroke-linejoin="round"/>
<path d="M69.4466 35.2403C71.4758 30.1824 69.1257 24.3939 64.1976 22.3113C59.2694 20.2286 53.6293 22.6405 51.6 27.6984C49.5708 32.7562 51.9209 38.5448 56.849 40.6274C61.7772 42.71 67.4173 40.2981 69.4466 35.2403Z" stroke="#333333" stroke-width="2" stroke-linecap="round" stroke-linejoin="round"/>
<path d="M42.1777 79V53.9779C42.1777 50.4218 44.9881 47.5375 48.453 47.5375H72.6354C76.1003 47.5375 78.9107 50.4218 78.9107 53.9779V79" stroke="#333333" stroke-width="2" stroke-linecap="round" stroke-linejoin="round"/>
<path d="M50.2969 78.9999V61.583" stroke="#333333" stroke-width="2" stroke-linecap="round" stroke-linejoin="round"/>
<path d="M13.4863 10.1827V30.3668" stroke="#333333" stroke-width="2" stroke-linecap="round" stroke-linejoin="round"/>
<path d="M13.4863 20.2719H18.7528C21.4671 20.2719 23.6709 22.5337 23.6709 25.3194C23.6709 28.1051 21.4671 30.367 18.7528 30.367H13.4863" stroke="#333333" stroke-width="2" stroke-linecap="round" stroke-linejoin="round"/>
<path d="M9.7627 10.1827H13.4858" stroke="#333333" stroke-width="2" stroke-linecap="round" stroke-linejoin="round"/>
<path d="M13.4863 6.36194V10.183" stroke="#333333" stroke-width="2" stroke-linecap="round" stroke-linejoin="round"/>
<path d="M17.6719 6.36194V10.183" stroke="#333333" stroke-width="2" stroke-linecap="round" stroke-linejoin="round"/>
<path d="M13.4863 30.3668V34.1879" stroke="#333333" stroke-width="2" stroke-linecap="round" stroke-linejoin="round"/>
<path d="M17.6719 30.3668V34.1879" stroke="#333333" stroke-width="2" stroke-linecap="round" stroke-linejoin="round"/>
<path d="M9.7627 30.3668H13.4858" stroke="#333333" stroke-width="2" stroke-linecap="round" stroke-linejoin="round"/>
<path d="M13.4863 10.1827H18.7528C21.4671 10.1827 23.6709 12.4446 23.6709 15.2303C23.6709 18.016 21.4671 20.2779 18.7528 20.2779H13.4863" stroke="#333333" stroke-width="2" stroke-linecap="round" stroke-linejoin="round"/>
<path d="M75.314 61.1638V53.9838C75.314 52.4677 74.1189 51.2412 72.6417 51.2412H48.4594C46.9821 51.2412 45.7871 52.4677 45.7871 53.9838V61.1638C48.2132 58.3842 51.672 56.7942 55.3051 56.7942H65.796C69.429 56.7942 72.8939 58.3842 75.314 61.1638Z" fill="#0FAB64"/>
</svg>
