<svg width="81" height="80" viewBox="0 0 81 80" fill="none" xmlns="http://www.w3.org/2000/svg">
<path d="M39.8797 1.36292L8.42709 25.7724C7.11656 26.7872 7.83565 28.884 9.49566 28.884H72.4078C74.0678 28.884 74.7801 26.7872 73.4763 25.7724L42.0237 1.36292C41.3987 0.879028 40.5182 0.879028 39.8932 1.36292H39.8797Z" stroke="black" stroke-width="2" stroke-linecap="round" stroke-linejoin="round"/>
<path d="M13.2861 78.9126V33.1718" stroke="black" stroke-width="2" stroke-linecap="round" stroke-linejoin="round"/>
<path d="M13.3362 79H68.8408V33.2592" stroke="black" stroke-width="2" stroke-linecap="round" stroke-linejoin="round"/>
<path d="M60.3369 56.0288H46.042V43.1721C46.042 39.2271 49.241 36.0281 53.1861 36.0281C57.1311 36.0281 60.3301 39.2271 60.3301 43.1721V56.0288H60.3369Z" stroke="black" stroke-width="2" stroke-linecap="round" stroke-linejoin="round"/>
<path d="M53.1865 56.0288V44.2474" stroke="black" stroke-width="2" stroke-linecap="round" stroke-linejoin="round"/>
<path d="M46.042 44.2474H60.3369" stroke="black" stroke-width="2" stroke-linecap="round" stroke-linejoin="round"/>
<path d="M22.251 78.9127V60.8476C22.251 56.9496 25.4097 53.7909 29.3077 53.7909C33.2057 53.7909 36.3644 56.9496 36.3644 60.8476V78.9127" stroke="black" stroke-width="2" stroke-linecap="round" stroke-linejoin="round"/>
<path d="M26.3573 67.4068C26.3573 67.5816 26.2162 67.7227 26.0414 67.7227C25.8667 67.7227 25.7256 67.5816 25.7256 67.4068C25.7256 67.2321 25.8667 67.0909 26.0414 67.0909C26.2162 67.0909 26.3573 67.2321 26.3573 67.4068Z" stroke="black" stroke-width="2" stroke-linecap="round" stroke-linejoin="round"/>
<path d="M40.2294 15.9939C43.1529 14.4952 46.5065 13.9978 49.7929 14.0718C50.5254 14.0852 51.258 14.1322 51.9838 14.1995L40.9552 5.63733L16.1963 24.8517H32.8165C33.9926 21.0814 36.7145 17.8017 40.2361 16.0006L40.2294 15.9939Z" fill="#0FAB64"/>
</svg>
