<svg width="81" height="80" viewBox="0 0 81 80" fill="none" xmlns="http://www.w3.org/2000/svg">
<path d="M40.0439 47.7469V42.3667" stroke="black" stroke-width="2" stroke-linecap="round" stroke-linejoin="round"/>
<path d="M33.2584 49.4666L30.8184 43.6108" stroke="black" stroke-width="2" stroke-linecap="round" stroke-linejoin="round"/>
<path d="M47.3145 49.4666L49.2523 44.0587" stroke="black" stroke-width="2" stroke-linecap="round" stroke-linejoin="round"/>
<path d="M62.8004 49.0076L62.6694 47.9736C62.2436 45.8336 61.0973 43.8817 59.4324 42.4883C58.368 41.6035 57.2926 41.0285 56.2609 40.8017L48.0729 38.3964C47.8928 38.3466 47.729 38.2637 47.5707 38.1586C47.1395 37.8655 46.8557 37.3955 46.7956 36.8702L46.4189 33.5912C48.7116 31.7885 50.4038 29.0957 51.2226 25.9494C52.6855 25.8166 53.8045 24.1743 53.8045 22.0952C53.8045 20.1765 52.8547 18.6227 51.5501 18.2909" stroke="black" stroke-width="2" stroke-linecap="round" stroke-linejoin="round"/>
<path d="M28.4547 18.3076C27.1883 18.6726 26.2713 20.2042 26.2713 22.0898C26.2713 24.1634 27.3849 25.8112 28.8478 25.9439C29.6666 29.0847 31.3588 31.7832 33.6514 33.5858L33.2748 36.8648C33.2147 37.3901 32.9309 37.8601 32.4996 38.1532C32.3468 38.2582 32.1775 38.3357 32.0029 38.391L23.8476 40.7908C22.7887 41.0286 21.7079 41.5981 20.6489 42.4884C18.9785 43.8874 17.8267 45.8337 17.4064 47.9737L17.2754 49.0077" stroke="black" stroke-width="2" stroke-linecap="round" stroke-linejoin="round"/>
<path d="M29.8628 11.1688C28.1379 13.729 28.4545 18.3075 28.4545 18.3075" stroke="black" stroke-width="2" stroke-linecap="round" stroke-linejoin="round"/>
<path d="M51.5504 18.2854C51.5504 18.2854 51.6814 15.6699 50.8135 12.7172" stroke="black" stroke-width="2" stroke-linecap="round" stroke-linejoin="round"/>
<path d="M29.8623 11.1689C29.906 5.97108 34.2347 3.00724 38.2741 2.46535C39.2676 2.33264 42.5864 1.94003 44.8627 1L44.8846 1.03321C45.1848 1.51428 45.2339 2.11145 45.021 2.63676C47.4665 3.30031 49.4753 2.99618 51.5605 2.11145C51.5878 3.62102 51.626 6.65676 51.0256 8.03915C50.4251 9.42154 49.317 10.627 47.8923 11.0693C46.9752 11.3513 45.9926 11.3071 45.0428 11.1799C43.1323 10.9256 41.2763 10.345 39.3822 9.98003C37.488 9.60955 35.5011 9.4547 33.6561 10.0242" stroke="black" stroke-width="2" stroke-linecap="round" stroke-linejoin="round"/>
<path d="M65.257 79H14.8135C14.8135 76.5007 16.8168 74.4713 19.2842 74.4713H60.7864C63.2537 74.4713 65.257 76.5007 65.257 79Z" stroke="black" stroke-width="2" stroke-linecap="round" stroke-linejoin="round"/>
<path d="M62.3694 74.4712L67.6971 56.3121C68.2811 54.3215 66.8073 52.3253 64.7603 52.3253H15.3157C13.2687 52.3253 11.7949 54.3215 12.3789 56.3121L17.7066 74.4712" stroke="black" stroke-width="2" stroke-linecap="round" stroke-linejoin="round"/>
<path d="M33.6455 33.5912L37.543 35.7422C39.0987 36.5993 40.9765 36.5993 42.5322 35.7422L46.4188 33.5912" stroke="black" stroke-width="2" stroke-linecap="round" stroke-linejoin="round"/>
<path d="M15.5943 55.6432L19.601 69.3067C20.327 67.9852 20.9056 66.5807 21.3041 65.1264C21.6425 63.8878 21.9154 62.522 22.8652 61.6704C23.886 60.7525 25.3871 60.7083 26.7518 60.747C31.3698 60.8852 36.0261 61.4714 40.5896 60.7304C44.7054 60.0613 48.6138 58.2642 51.8781 55.6432H15.5889H15.5943Z" fill="#0FAB64"/>
</svg>
