<svg width="81" height="80" viewBox="0 0 81 80" fill="none" xmlns="http://www.w3.org/2000/svg">
<path d="M40.4696 49.7203L31.7744 58.6414" stroke="black" stroke-width="2" stroke-linecap="round" stroke-linejoin="round"/>
<path d="M40.4697 39.8746V49.7204L49.0423 58.5219" stroke="black" stroke-width="2" stroke-linecap="round" stroke-linejoin="round"/>
<path d="M46.167 23.9512V33.6272" stroke="black" stroke-width="2" stroke-linecap="round" stroke-linejoin="round"/>
<path d="M34.6143 23.9512V33.6272H46.167" stroke="black" stroke-width="2" stroke-linecap="round" stroke-linejoin="round"/>
<path d="M42.56 12.2802C45.2951 11.1104 46.5881 7.88724 45.4479 5.08106C44.3077 2.27488 41.1661 0.94835 38.4309 2.11817C35.6958 3.288 34.4028 6.51119 35.543 9.31737C36.6833 12.1235 39.8248 13.4501 42.56 12.2802Z" stroke="black" stroke-width="2" stroke-linecap="round" stroke-linejoin="round"/>
<path d="M30.2598 33.6273V19.7236C30.2598 17.7481 31.8234 16.1438 33.7489 16.1438H47.1902C49.1157 16.1438 50.6793 17.7481 50.6793 19.7236V32.2809" stroke="black" stroke-width="2" stroke-linecap="round" stroke-linejoin="round"/>
<path d="M22.6631 69.3176V78.9999" stroke="black" stroke-width="2" stroke-linecap="round" stroke-linejoin="round"/>
<path d="M11.1035 69.3176V78.9999H22.6623" stroke="black" stroke-width="2" stroke-linecap="round" stroke-linejoin="round"/>
<path d="M22.3257 52.6018C22.3257 55.6405 19.922 58.1067 16.9602 58.1067C13.9985 58.1067 11.5947 55.6405 11.5947 52.6018C11.5947 49.5631 13.9985 47.0969 16.9602 47.0969C19.922 47.0969 22.3257 49.5631 22.3257 52.6018Z" stroke="black" stroke-width="2" stroke-linecap="round" stroke-linejoin="round"/>
<path d="M6.75 79V65.0963C6.75 63.1208 8.31366 61.5165 10.2391 61.5165H23.6805C25.6059 61.5165 27.1696 63.1208 27.1696 65.0963V77.6536" stroke="black" stroke-width="2" stroke-linecap="round" stroke-linejoin="round"/>
<path d="M70.0264 69.3176V78.9999" stroke="black" stroke-width="2" stroke-linecap="round" stroke-linejoin="round"/>
<path d="M58.4668 69.3176V78.9999H70.0256" stroke="black" stroke-width="2" stroke-linecap="round" stroke-linejoin="round"/>
<path d="M69.689 52.6018C69.689 55.6405 67.2853 58.1067 64.3235 58.1067C61.3618 58.1067 58.958 55.6405 58.958 52.6018C58.958 49.5631 61.3618 47.0969 64.3235 47.0969C67.2853 47.0969 69.689 49.5631 69.689 52.6018Z" stroke="black" stroke-width="2" stroke-linecap="round" stroke-linejoin="round"/>
<path d="M54.1133 79V65.0963C54.1133 63.1208 55.6769 61.5165 57.6024 61.5165H71.0437C72.9692 61.5165 74.5329 63.1208 74.5329 65.0963V77.6536" stroke="black" stroke-width="2" stroke-linecap="round" stroke-linejoin="round"/>
<path d="M16.9601 72.6898L19.5171 70.4627L18.0332 64.4105H16.9601H15.8931L14.4092 70.4627L16.9601 72.6898Z" fill="#0FAB64"/>
<path d="M40.4701 27.1346L43.0211 24.9075L41.5371 18.849H40.4701H39.397L37.9131 24.9075L40.4701 27.1346Z" fill="#0FAB64"/>
<path d="M64.3234 72.5136L66.8804 70.2865L65.3965 64.2343H64.3234H63.2564L61.7725 70.2865L64.3234 72.5136Z" fill="#0FAB64"/>
</svg>
