<svg width="81" height="80" viewBox="0 0 81 80" fill="none" xmlns="http://www.w3.org/2000/svg">
<path d="M56.1846 43.5195V37.7605" stroke="black" stroke-width="2" stroke-linecap="round" stroke-linejoin="round"/>
<path d="M48.703 45.3602L46.1816 39.0922" stroke="black" stroke-width="2" stroke-linecap="round" stroke-linejoin="round"/>
<path d="M64.0674 45.3602L66.1744 39.5775" stroke="black" stroke-width="2" stroke-linecap="round" stroke-linejoin="round"/>
<path d="M76.9054 59.8789H66.8375C66.2655 59.8789 65.8018 60.3426 65.8018 60.9147V64.904C65.8018 65.4761 66.2655 65.9398 66.8375 65.9398H76.9054C77.4774 65.9398 77.9412 65.4761 77.9412 64.904V60.9147C77.9412 60.3426 77.4774 59.8789 76.9054 59.8789Z" stroke="black" stroke-width="2" stroke-linecap="round" stroke-linejoin="round"/>
<path d="M76.3781 59.8788V52.7645C76.3781 51.0481 74.9872 49.6512 73.2648 49.6512H47.5537C45.8373 49.6512 44.4404 51.0422 44.4404 52.7645V73.0599C44.4404 74.7764 45.8313 76.1732 47.5537 76.1732H73.2648C74.9813 76.1732 76.3781 74.7823 76.3781 73.0599V65.9456" stroke="black" stroke-width="2" stroke-linecap="round" stroke-linejoin="round"/>
<path d="M52.7568 66.3184C52.7568 68.2065 54.2897 69.7395 56.1778 69.7395C58.0659 69.7395 59.5989 68.2065 59.5989 66.3184C59.5989 64.4303 58.1961 63.5544 56.1778 62.8974C54.3785 62.3115 52.7568 61.3645 52.7568 59.4764C52.7568 57.5883 54.2897 56.0553 56.1778 56.0553C58.0659 56.0553 59.5989 57.5883 59.5989 59.4764" stroke="black" stroke-width="2" stroke-linecap="round" stroke-linejoin="round"/>
<path d="M56.1777 54.1437V56.0732" stroke="black" stroke-width="2" stroke-linecap="round" stroke-linejoin="round"/>
<path d="M56.1777 69.7396V71.6751" stroke="black" stroke-width="2" stroke-linecap="round" stroke-linejoin="round"/>
<path d="M9.04004 27.9592V71.8114H14.1775" stroke="black" stroke-width="2" stroke-linecap="round" stroke-linejoin="round"/>
<path d="M71.4717 27.9592V46.1003" stroke="black" stroke-width="2" stroke-linecap="round" stroke-linejoin="round"/>
<path d="M2.55361 16.8378C-0.0328929 19.4243 1.44681 23.9995 5.08094 24.3369C5.24666 24.3546 5.41237 24.3605 5.57809 24.3605C7.85682 24.3605 9.79225 22.9105 10.5321 20.8862C11.266 22.9105 13.2074 24.3605 15.4861 24.3605C17.7648 24.3605 19.7003 22.9105 20.4401 20.8862C21.174 22.9105 23.1154 24.3605 25.3941 24.3605C27.6729 24.3605 29.6084 22.9105 30.3482 20.8862C31.0821 22.9105 33.0235 24.3605 35.3022 24.3605C37.5809 24.3605 39.5164 22.9105 40.2562 20.8862C40.9901 22.9105 42.9315 24.3605 45.2102 24.3605C47.489 24.3605 49.4244 22.9105 50.1642 20.8862C50.8982 22.9105 52.8395 24.3605 55.1182 24.3605C57.397 24.3605 59.3324 22.9105 60.0723 20.8862C60.8062 22.9105 62.7475 24.3605 65.0263 24.3605C67.305 24.3605 69.2404 22.9105 69.9803 20.8862C70.7142 22.9105 72.6555 24.3605 74.9343 24.3605C74.9639 24.3605 74.9935 24.3605 75.0231 24.3605C78.8644 24.2954 80.6636 19.5368 77.9469 16.82L65.1268 4H40.8776C34.8938 4 53.3663 4 15.3915 4L2.55953 16.8319L2.55361 16.8378Z" stroke="black" stroke-width="2" stroke-linecap="round" stroke-linejoin="round"/>
<path d="M32.7217 38.968H18.5166V71.8113H32.7217V38.968Z" stroke="black" stroke-width="2" stroke-linecap="round" stroke-linejoin="round"/>
<path d="M22.3175 50.6575C22.3175 50.7937 22.205 50.9062 22.0689 50.9062C21.9327 50.9062 21.8203 50.7937 21.8203 50.6575C21.8203 50.5214 21.9327 50.4089 22.0689 50.4089C22.205 50.4089 22.3175 50.5214 22.3175 50.6575Z" stroke="black" stroke-width="2" stroke-linecap="round" stroke-linejoin="round"/>
<path d="M68.9149 62.9922C69.0162 62.9922 69.0984 62.9101 69.0984 62.8088C69.0984 62.7074 69.0162 62.6252 68.9149 62.6252C68.8136 62.6252 68.7314 62.7074 68.7314 62.8088C68.7314 62.9101 68.8136 62.9922 68.9149 62.9922Z" stroke="black" stroke-width="2" stroke-linecap="round" stroke-linejoin="round"/>
<path d="M29.1704 56.6948L28.7857 57.8193C27.4362 61.7612 25.1812 65.3421 22.21 68.266H29.1704V56.6948Z" fill="#0FAB64"/>
</svg>
