<svg width="81" height="80" viewBox="0 0 81 80" fill="none" xmlns="http://www.w3.org/2000/svg">
<path d="M43.4882 17.0745C47.2523 17.7384 48.9873 14.6901 48.9873 14.6901C45.7937 11.0744 45.6349 8.36416 44.1881 5.05028C43.0823 2.50903 40.3122 1 37.6655 1C35.0189 1 32.2487 2.50903 31.143 5.05028C29.6962 8.36416 29.5374 11.0744 26.3438 14.6901C26.3438 14.6901 28.0729 17.7384 31.8429 17.0745" stroke="black" stroke-width="2" stroke-linecap="round" stroke-linejoin="round"/>
<path d="M44.3758 14.684C43.7465 17.8953 40.9822 20.3158 37.6651 20.3158C34.3479 20.3158 31.366 17.7022 30.8896 14.2977" stroke="black" stroke-width="2" stroke-linecap="round" stroke-linejoin="round"/>
<path d="M57.1502 48.4507H43.3876C42.3872 48.4507 41.5762 49.283 41.5762 50.3098V58.0362C41.5762 59.063 42.3872 59.8953 43.3876 59.8953H57.1502C58.1507 59.8953 58.9617 59.063 58.9617 58.0362V50.3098C58.9617 49.283 58.1507 48.4507 57.1502 48.4507Z" stroke="black" stroke-width="2" stroke-linecap="round" stroke-linejoin="round"/>
<path d="M45.1055 56.2735V52.0723H55.4333V56.2735L52.6631 55.1447C51.1222 54.5169 49.4107 54.5169 47.8756 55.1447L45.1055 56.2735Z" fill="#0FAB64"/>
<path d="M46.8047 48.4507V45.9095C46.8047 44.9558 47.5575 44.1771 48.4927 44.1771H52.0451C52.9743 44.1771 53.733 44.9498 53.733 45.9095V48.4507" stroke="black" stroke-width="2" stroke-linecap="round" stroke-linejoin="round"/>
<path d="M37.6647 78.9999H27.6016C27.6016 76.6397 29.466 74.7202 31.7715 74.7202H37.6647V78.9999Z" stroke="black" stroke-width="2" stroke-linecap="round" stroke-linejoin="round"/>
<path d="M37.665 78.9999H47.7282C47.7282 76.6397 45.8638 74.7202 43.5582 74.7202H37.665" stroke="black" stroke-width="2" stroke-linecap="round" stroke-linejoin="round"/>
<path d="M25.0557 47.2196V31.0727C25.0557 27.2699 28.0611 24.1854 31.7664 24.1854H43.5646C47.2699 24.1854 50.2753 27.2699 50.2753 31.0727V44.1774" stroke="black" stroke-width="2" stroke-linecap="round" stroke-linejoin="round"/>
<path d="M30.3076 38.4243V45.9997" stroke="black" stroke-width="2" stroke-linecap="round" stroke-linejoin="round"/>
<path d="M37.665 24.1912V32.0685" stroke="black" stroke-width="2" stroke-linecap="round" stroke-linejoin="round"/>
<path d="M49.846 63.034L51.4692 68.6356H37.6655H37.5537H23.75L30.3078 45.9998H39.4476" stroke="black" stroke-width="2" stroke-linecap="round" stroke-linejoin="round"/>
<path d="M43.9824 68.6356V74.7202" stroke="black" stroke-width="2" stroke-linecap="round" stroke-linejoin="round"/>
<path d="M31.2373 74.7202V68.6356" stroke="black" stroke-width="2" stroke-linecap="round" stroke-linejoin="round"/>
<path d="M37.665 74.7202V68.6356" stroke="black" stroke-width="2" stroke-linecap="round" stroke-linejoin="round"/>
</svg>
