<svg width="81" height="80" viewBox="0 0 81 80" fill="none" xmlns="http://www.w3.org/2000/svg">
<path d="M54.4756 60.5139V74.1519" stroke="black" stroke-width="2" stroke-linecap="round" stroke-linejoin="round"/>
<path d="M63.0498 74.1519V46.882" stroke="black" stroke-width="2" stroke-linecap="round" stroke-linejoin="round"/>
<path d="M71.6289 46.882V74.1519" stroke="black" stroke-width="2" stroke-linecap="round" stroke-linejoin="round"/>
<path d="M71.6289 32.686V46.882" stroke="black" stroke-width="2" stroke-linecap="round" stroke-linejoin="round"/>
<path d="M63.0504 17.14C67.5074 17.14 71.1204 13.5269 71.1204 9.07C71.1204 4.61307 67.5074 1 63.0504 1C58.5935 1 54.9805 4.61307 54.9805 9.07C54.9805 13.5269 58.5935 17.14 63.0504 17.14Z" stroke="black" stroke-width="2" stroke-linecap="round" stroke-linejoin="round"/>
<path d="M47.8633 25.1321C48.4633 22.8881 50.5093 21.238 52.9393 21.238H73.1713C76.0693 21.238 78.4213 23.59 78.4213 26.488V46.882" stroke="black" stroke-width="2" stroke-linecap="round" stroke-linejoin="round"/>
<path d="M61.3223 46.882H71.6303" stroke="black" stroke-width="2" stroke-linecap="round" stroke-linejoin="round"/>
<path d="M63.0505 79H51.1885C51.1885 76.288 53.3905 74.0859 56.1025 74.0859H63.0505V79Z" stroke="black" stroke-width="2" stroke-linecap="round" stroke-linejoin="round"/>
<path d="M63.0498 79H74.9118C74.9118 76.288 72.7098 74.0859 69.9978 74.0859H63.0498V79Z" stroke="black" stroke-width="2" stroke-linecap="round" stroke-linejoin="round"/>
<path d="M9.54199 29.7939V74.1519" stroke="black" stroke-width="2" stroke-linecap="round" stroke-linejoin="round"/>
<path d="M18.1162 74.1519V46.882" stroke="black" stroke-width="2" stroke-linecap="round" stroke-linejoin="round"/>
<path d="M26.6953 61.156V74.152" stroke="black" stroke-width="2" stroke-linecap="round" stroke-linejoin="round"/>
<path d="M18.1159 17.14C22.5728 17.14 26.1858 13.5269 26.1858 9.07C26.1858 4.61307 22.5728 1 18.1159 1C13.6589 1 10.0459 4.61307 10.0459 9.07C10.0459 13.5269 13.6589 17.14 18.1159 17.14Z" stroke="black" stroke-width="2" stroke-linecap="round" stroke-linejoin="round"/>
<path d="M2.75 46.882V26.488C2.75 23.59 5.102 21.238 7.99999 21.238H28.232" stroke="black" stroke-width="2" stroke-linecap="round" stroke-linejoin="round"/>
<path d="M9.54199 46.882H19.946" stroke="black" stroke-width="2" stroke-linecap="round" stroke-linejoin="round"/>
<path d="M18.1159 79H6.25391C6.25391 76.288 8.45594 74.0859 11.1679 74.0859H18.1159V79Z" stroke="black" stroke-width="2" stroke-linecap="round" stroke-linejoin="round"/>
<path d="M18.1162 79H29.9782C29.9782 76.288 27.7762 74.0859 25.0642 74.0859H18.1162V79Z" stroke="black" stroke-width="2" stroke-linecap="round" stroke-linejoin="round"/>
<path d="M36.3506 49.1739C36.3506 51.6519 38.3546 53.6559 40.8326 53.6559C43.3106 53.6559 45.3145 51.6519 45.3145 49.1739C45.3145 46.6959 43.4786 45.5559 40.8326 44.6919C38.4806 43.9239 36.3506 42.6879 36.3506 40.2099C36.3506 37.7319 38.3546 35.7279 40.8326 35.7279C43.3106 35.7279 45.3145 37.7319 45.3145 40.2099" stroke="black" stroke-width="2" stroke-linecap="round" stroke-linejoin="round"/>
<path d="M40.832 33.2319V35.7579" stroke="black" stroke-width="2" stroke-linecap="round" stroke-linejoin="round"/>
<path d="M40.832 53.6559V56.1819" stroke="black" stroke-width="2" stroke-linecap="round" stroke-linejoin="round"/>
<path d="M35.7195 28.1801C34.3695 28.9421 32.6475 29.4821 30.7875 30.6761C28.2915 32.2841 26.3535 34.708 25.0755 37.39C23.0295 41.686 22.8735 46.846 24.6555 51.262" stroke="black" stroke-width="2" stroke-linecap="round" stroke-linejoin="round"/>
<path d="M35.7559 25.498L38.6478 24.838L39.3138 27.73" stroke="black" stroke-width="2" stroke-linecap="round" stroke-linejoin="round"/>
<path d="M28.7422 57.5919C30.0262 58.3779 31.3222 59.5479 33.2122 60.5199C35.8522 61.8819 38.9182 62.3439 41.8822 62.1039C46.6282 61.7259 51.1702 59.284 54.1042 55.528" stroke="black" stroke-width="2" stroke-linecap="round" stroke-linejoin="round"/>
<path d="M26.2456 58.81L24.2236 56.632L26.4016 54.61" stroke="black" stroke-width="2" stroke-linecap="round" stroke-linejoin="round"/>
<path d="M57.5542 48.58C57.6262 47.134 57.9381 45.502 57.8421 43.504C57.6981 40.54 56.5642 37.648 54.8782 35.2C52.1782 31.282 47.7862 28.5641 43.0762 27.9041" stroke="black" stroke-width="2" stroke-linecap="round" stroke-linejoin="round"/>
<path d="M59.8517 50.386L58.9757 53.23L56.1377 52.354" stroke="black" stroke-width="2" stroke-linecap="round" stroke-linejoin="round"/>
<path d="M13.1417 36.892C15.2597 32.212 18.9558 28.426 23.5878 26.2L26.4257 24.838H13.1357V36.892H13.1417Z" fill="#0FAB64"/>
<path d="M68.2693 36.892C66.1514 32.212 62.4554 28.426 57.8234 26.2L54.9854 24.838H68.2754V36.892H68.2693Z" fill="#0FAB64"/>
</svg>
