<svg width="81" height="80" viewBox="0 0 81 80" fill="none" xmlns="http://www.w3.org/2000/svg">
<path d="M66.5967 48.2312H53.5914C52.6467 48.2312 51.8809 49.0069 51.8809 49.9637V57.1655C51.8809 58.1223 52.6467 58.898 53.5914 58.898H66.5967C67.5414 58.898 68.3073 58.1223 68.3073 57.1655V49.9637C68.3073 49.0069 67.5414 48.2312 66.5967 48.2312Z" stroke="black" stroke-width="2" stroke-linecap="round" stroke-linejoin="round"/>
<path d="M55.459 55.276V51.8531H64.7331V55.276L64.3219 55.125C61.5921 54.1169 58.6 54.1169 55.8762 55.125L55.465 55.276H55.459Z" fill="#0FAB64"/>
<path d="M56.8174 48.2311V45.8647C56.8174 44.9713 57.5326 44.2529 58.4088 44.2529H61.7644C62.6465 44.2529 63.3558 44.9774 63.3558 45.8647V48.2311" stroke="black" stroke-width="2" stroke-linecap="round" stroke-linejoin="round"/>
<path d="M25.0235 15.4978C28.1218 13.2146 28.8059 8.81981 26.5516 5.68184C24.2973 2.54386 19.9582 1.85094 16.8599 4.13416C13.7616 6.41739 13.0775 10.8122 15.3318 13.9501C17.5861 17.0881 21.9253 17.781 25.0235 15.4978Z" stroke="black" stroke-width="2" stroke-linecap="round" stroke-linejoin="round"/>
<path d="M25.918 48.3218V72.734" stroke="black" stroke-width="2" stroke-linecap="round" stroke-linejoin="round"/>
<path d="M15.9893 72.3175V48.3218" stroke="black" stroke-width="2" stroke-linecap="round" stroke-linejoin="round"/>
<path d="M20.9531 27.6281V30.5619C20.9531 33.4293 23.2478 35.7534 26.0789 35.7534H37.3617" stroke="black" stroke-width="2" stroke-linecap="round" stroke-linejoin="round"/>
<path d="M30.2402 79.0001H15.9893V72.3175H23.6422C27.2839 72.3175 30.2402 75.3117 30.2402 79.0001Z" stroke="black" stroke-width="2" stroke-linecap="round" stroke-linejoin="round"/>
<path d="M28.9938 31.9381V28.5576C28.9938 24.0603 25.3938 20.4142 20.9534 20.4142C16.5131 20.4142 12.9131 24.0603 12.9131 28.5576V35.8559C12.9131 40.2023 13.968 44.4884 15.9886 48.3277H25.9183C27.313 45.6776 28.2488 42.8162 28.6898 39.8703" stroke="black" stroke-width="2" stroke-linecap="round" stroke-linejoin="round"/>
<path d="M62.0599 16.5918C65.7899 15.7043 68.1034 11.9223 67.2272 8.14442C66.3509 4.36654 62.6167 2.0234 58.8867 2.91089C55.1566 3.79837 52.8432 7.58041 53.7194 11.3583C54.5957 15.1362 58.3298 17.4793 62.0599 16.5918Z" stroke="black" stroke-width="2" stroke-linecap="round" stroke-linejoin="round"/>
<path d="M55.4697 62.52V72.734" stroke="black" stroke-width="2" stroke-linecap="round" stroke-linejoin="round"/>
<path d="M65.4004 72.3175V62.52" stroke="black" stroke-width="2" stroke-linecap="round" stroke-linejoin="round"/>
<path d="M51.1553 79.0001H65.4062V72.3175H57.7533C54.1116 72.3175 51.1553 75.3117 51.1553 79.0001Z" stroke="black" stroke-width="2" stroke-linecap="round" stroke-linejoin="round"/>
<path d="M53.4903 43.4561C52.7631 40.9991 52.3936 38.4396 52.3936 35.8559V28.5576C52.3936 24.0603 55.9935 20.4142 60.4339 20.4142C64.8743 20.4142 68.4743 24.0603 68.4743 28.5576V35.8559C68.4743 38.4396 68.0988 40.9991 67.3776 43.4561" stroke="black" stroke-width="2" stroke-linecap="round" stroke-linejoin="round"/>
<path d="M60.4346 27.6281V44.247" stroke="black" stroke-width="2" stroke-linecap="round" stroke-linejoin="round"/>
<path d="M52.3941 35.8561H43.2451" stroke="black" stroke-width="2" stroke-linecap="round" stroke-linejoin="round"/>
</svg>
