<svg width="81" height="80" viewBox="0 0 81 80" fill="none" xmlns="http://www.w3.org/2000/svg">
<g clip-path="url(#clip0_3122_3589)">
<path d="M44.693 48.999L40.7503 52.9249L36.8076 48.999" stroke="black" stroke-width="2" stroke-miterlimit="10" stroke-linecap="round" stroke-linejoin="round"/>
<path d="M42.6967 50.9874L46.5895 70.7189L40.7503 76.7352L34.9111 70.7189L38.8039 50.9874" stroke="black" stroke-width="2" stroke-miterlimit="10" stroke-linecap="round" stroke-linejoin="round"/>
<path d="M51.5306 70.311H67.0019L64.9557 53.8936C64.5066 51.5993 63.2589 49.5089 61.5121 47.9793C60.3642 47.0106 59.2164 46.3987 58.1184 46.1438L49.3846 43.5435C49.1849 43.4926 49.0352 43.3906 48.8356 43.2886C48.3864 42.9827 48.087 42.4728 47.9871 41.912L47.5879 38.394C50.0334 36.4565 51.83 33.5503 52.7284 30.1343C54.2755 29.9813 55.4733 28.1968 55.4733 25.9535C55.4733 23.863 54.4751 22.2315 53.0777 21.8746" stroke="black" stroke-width="2" stroke-miterlimit="10" stroke-linecap="round" stroke-linejoin="round"/>
<path d="M28.3733 21.9256C27.0258 22.3335 26.0277 23.965 26.0277 26.0045C26.0277 28.2478 27.2255 30.0323 28.7726 30.1853C29.6709 33.5503 31.4676 36.4565 33.9131 38.445L33.5138 41.963C33.4639 42.5238 33.1645 43.0337 32.6654 43.3396C32.5157 43.4416 32.316 43.5435 32.1164 43.5945L23.3826 46.1948C22.2347 46.4497 21.0868 47.0616 19.9389 48.0303C18.1423 49.5599 16.9445 51.6503 16.4953 53.9446L14.499 70.3111H28.3733" stroke="black" stroke-width="2" stroke-miterlimit="10" stroke-linecap="round" stroke-linejoin="round"/>
<path d="M29.8702 14.2267C28.0237 16.98 28.373 21.9256 28.373 21.9256" stroke="black" stroke-width="2" stroke-miterlimit="10" stroke-linecap="round" stroke-linejoin="round"/>
<path d="M53.0778 21.8746C53.0778 21.8746 53.2275 19.0704 52.2793 15.8583" stroke="black" stroke-width="2" stroke-miterlimit="10" stroke-linecap="round" stroke-linejoin="round"/>
<path d="M37.7061 25.9025H32.2163C31.817 25.9025 31.5176 25.5965 31.5176 25.1887V22.1295C31.5176 21.7216 31.817 21.4157 32.2163 21.4157H37.7061C38.1054 21.4157 38.4048 21.7216 38.4048 22.1295V25.1887C38.4048 25.5965 38.1054 25.9025 37.7061 25.9025Z" stroke="black" stroke-width="2" stroke-miterlimit="10" stroke-linecap="round" stroke-linejoin="round"/>
<path d="M49.2344 25.9025H43.7446C43.3453 25.9025 43.0459 25.5965 43.0459 25.1887V22.1295C43.0459 21.7216 43.3453 21.4157 43.7446 21.4157H49.2344C49.6337 21.4157 49.9331 21.7216 49.9331 22.1295V25.1887C49.9331 25.5965 49.6337 25.9025 49.2344 25.9025Z" stroke="black" stroke-width="2" stroke-miterlimit="10" stroke-linecap="round" stroke-linejoin="round"/>
<path d="M38.4053 23.0472H43.0467" stroke="black" stroke-width="2" stroke-miterlimit="10" stroke-linecap="round" stroke-linejoin="round"/>
<path d="M28.373 21.9256L31.5172 22.8433" stroke="black" stroke-width="2" stroke-miterlimit="10" stroke-linecap="round" stroke-linejoin="round"/>
<path d="M49.9336 22.8433L53.0778 21.8746" stroke="black" stroke-width="2" stroke-miterlimit="10" stroke-linecap="round" stroke-linejoin="round"/>
<path d="M47.8869 41.0962L40.7501 47.6224L33.6133 41.0962" stroke="black" stroke-width="2" stroke-miterlimit="10" stroke-linecap="round" stroke-linejoin="round"/>
<path d="M51.5303 64.6516H58.5173" stroke="black" stroke-width="2" stroke-miterlimit="10" stroke-linecap="round" stroke-linejoin="round"/>
<path d="M29.8701 14.2267C29.92 8.6183 34.5614 5.4062 38.8535 4.84536C39.9015 4.6924 43.445 4.28452 45.8905 3.2648V3.31579C46.1899 3.82564 46.2398 4.48846 46.0402 5.0493C48.6354 5.7631 50.7814 5.45719 53.0272 4.48846C53.0771 6.12 53.0771 9.38309 52.4782 10.8617C51.8295 12.3403 50.6317 13.6659 49.1344 14.1248C48.1363 14.4307 47.0882 14.3797 46.0901 14.2267C44.0439 13.9718 42.0476 13.309 40.0513 12.9521C38.0051 12.5442 35.9089 12.3912 33.9126 13.0031" stroke="black" stroke-width="2" stroke-miterlimit="10" stroke-linecap="round" stroke-linejoin="round"/>
<path d="M49.684 8.61832C49.3845 9.68902 48.5361 10.5558 47.488 10.8107C46.44 11.0656 45.342 10.8107 44.2939 10.5048" stroke="black" stroke-width="2" stroke-miterlimit="10" stroke-linecap="round" stroke-linejoin="round"/>
<path d="M39.0037 65.3654L38.1553 69.7502L40.7505 72.4014L43.3457 69.7502L42.5471 65.3654L42.3475 65.6713C41.549 66.691 40.0019 66.691 39.2532 65.6203L39.0037 65.3654Z" fill="#0FAB64"/>
</g>
<defs>
<clipPath id="clip0_3122_3589">
<rect width="54" height="75" fill="white" transform="translate(13.75 2.5)"/>
</clipPath>
</defs>
</svg>
