<svg width="80" height="80" viewBox="0 0 80 80" fill="none" xmlns="http://www.w3.org/2000/svg">
<path d="M13.0732 3.39526V31.1918H66.7781V3.39526" stroke="black" stroke-width="2" stroke-linecap="round" stroke-linejoin="round"/>
<path d="M69.4069 1C69.4069 2.31986 68.5209 3.39533 67.4332 3.39533H12.4268C11.333 3.39533 10.4531 2.32597 10.4531 1" stroke="black" stroke-width="2" stroke-linecap="round" stroke-linejoin="round"/>
<path d="M56.1703 6.96387L43.5339 19.6003L37.9733 14.0398L25.3369 26.6762" stroke="black" stroke-width="2" stroke-linecap="round" stroke-linejoin="round"/>
<path d="M42.6608 51.4894C46.2793 49.978 47.9874 45.8194 46.476 42.201C44.9646 38.5825 40.806 36.8744 37.1875 38.3858C33.5691 39.8972 31.861 44.0558 33.3724 47.6743C34.8838 51.2927 39.0424 53.0008 42.6608 51.4894Z" stroke="black" stroke-width="2" stroke-linecap="round" stroke-linejoin="round"/>
<path d="M26.4062 78.9999V61.0657C26.4062 58.5176 28.4716 56.4462 31.0258 56.4462H48.8194C51.3675 56.4462 53.4389 58.5115 53.4389 61.0657V78.9999" stroke="black" stroke-width="2" stroke-linecap="round" stroke-linejoin="round"/>
<path d="M65.2363 62.2083V71.8567" stroke="black" stroke-width="2" stroke-linecap="round" stroke-linejoin="round"/>
<path d="M64.8953 45.545C64.8953 48.5758 62.4389 51.0322 59.4081 51.0322C56.3773 51.0322 53.9209 48.5758 53.9209 45.545C53.9209 42.5143 56.3773 40.0579 59.4081 40.0579C62.4389 40.0579 64.8953 42.5143 64.8953 45.545Z" stroke="black" stroke-width="2" stroke-linecap="round" stroke-linejoin="round"/>
<path d="M54.6416 54.4359H66.282C68.2496 54.4359 69.8506 56.0308 69.8506 58.0044V71.863" stroke="black" stroke-width="2" stroke-linecap="round" stroke-linejoin="round"/>
<path d="M59.4092 54.4359V60.7908" stroke="black" stroke-width="2" stroke-linecap="round" stroke-linejoin="round"/>
<path d="M14.4541 62.2083V71.8567" stroke="black" stroke-width="2" stroke-linecap="round" stroke-linejoin="round"/>
<path d="M25.9304 45.545C25.9304 48.5758 23.474 51.0322 20.4432 51.0322C17.4124 51.0322 14.9561 48.5758 14.9561 45.545C14.9561 42.5143 17.4124 40.0579 20.4432 40.0579C23.474 40.0579 25.9304 42.5143 25.9304 45.545Z" stroke="black" stroke-width="2" stroke-linecap="round" stroke-linejoin="round"/>
<path d="M10 71.8569V57.9983C10 56.0308 11.5948 54.4298 13.5685 54.4298H25.7161" stroke="black" stroke-width="2" stroke-linecap="round" stroke-linejoin="round"/>
<path d="M20.4424 54.4359V60.7908" stroke="black" stroke-width="2" stroke-linecap="round" stroke-linejoin="round"/>
<path d="M48.8133 60.1127H31.0196C30.4941 60.1127 30.0664 60.5404 30.0664 61.0659V66.8708C30.0664 66.8708 30.1092 66.8403 30.1275 66.8281C34.1115 64.2373 37.6678 64.4328 39.9104 64.4328C42.1529 64.4328 45.6236 64.1822 49.7543 66.8708V61.0659C49.7543 60.5404 49.3266 60.1127 48.8011 60.1127H48.8133Z" fill="#0FAB64"/>
</svg>
