<svg width="81" height="80" viewBox="0 0 81 80" fill="none" xmlns="http://www.w3.org/2000/svg">
<g clip-path="url(#clip0_3122_3797)">
<path d="M65.7133 44.8666H15.2867C14.5564 44.8666 14 44.2819 14 43.5941V29.3554C14 28.6676 14.5912 28.0829 15.2867 28.0829H65.7133C66.4436 28.0829 67 28.6676 67 29.3554V43.5941C67 44.3163 66.4436 44.8666 65.7133 44.8666ZM16.5735 42.3216H64.4265V30.628H16.5735V42.3216Z" fill="black"/>
<path d="M65.7133 23.8181H15.2867C14.5564 23.8181 14 23.2335 14 22.5456V8.27254C14 7.58468 14.5912 7 15.2867 7H65.7133C66.4436 7 67 7.58468 67 8.27254V22.5112C67 23.2335 66.4436 23.8181 65.7133 23.8181ZM16.5735 21.2387H64.4265V9.54508H16.5735V21.2387Z" fill="black"/>
<path d="M65.7133 66.0183H15.2867C14.5564 66.0183 14 65.4336 14 64.7457V50.4039C14 49.716 14.5912 49.1313 15.2867 49.1313H65.7133C66.4436 49.1313 67 49.716 67 50.4039V64.7457C67 65.468 66.4436 66.0183 65.7133 66.0183ZM16.5735 63.4732H64.4265V51.7108H16.5735V63.4732Z" fill="black"/>
<path d="M20.3644 26.26C19.6341 26.26 19.0776 25.6753 19.0776 24.9875V22.5112C19.0776 21.8233 19.6688 21.2386 20.3644 21.2386C21.0599 21.2386 21.6511 21.8233 21.6511 22.5112V24.9875C21.6511 25.7097 21.0947 26.26 20.3644 26.26Z" fill="black"/>
<path d="M60.6359 26.26C59.9056 26.26 59.3491 25.6753 59.3491 24.9875V22.5112C59.3491 21.8233 59.9403 21.2386 60.6359 21.2386C61.3662 21.2386 61.9226 21.8233 61.9226 22.5112V24.9875C61.9226 25.7097 61.3662 26.26 60.6359 26.26Z" fill="black"/>
<path d="M20.3644 47.4117C19.6341 47.4117 19.0776 46.827 19.0776 46.1391V43.5941C19.0776 42.9062 19.6688 42.3215 20.3644 42.3215C21.0599 42.3215 21.6511 42.9062 21.6511 43.5941V46.1391C21.6511 46.8614 21.0947 47.4117 20.3644 47.4117Z" fill="black"/>
<path d="M60.6359 47.4117C59.9056 47.4117 59.3491 46.827 59.3491 46.1391V43.5941C59.3491 42.9062 59.9403 42.3215 60.6359 42.3215C61.3662 42.3215 61.9226 42.9062 61.9226 43.5941V46.1391C61.9226 46.8614 61.3662 47.4117 60.6359 47.4117Z" fill="black"/>
<path d="M60.636 73H20.3644C19.6341 73 19.0776 72.4153 19.0776 71.7274V64.7457C19.0776 64.0578 19.6688 63.4731 20.3644 63.4731C21.0599 63.4731 21.6511 64.0578 21.6511 64.7457V70.4549H59.3493V64.7457C59.3493 64.0578 59.9405 63.4731 60.636 63.4731C61.3664 63.4731 61.9228 64.0578 61.9228 64.7457V71.7274C61.9228 72.4497 61.3664 73 60.636 73Z" fill="black"/>
<path d="M36.3615 16.5269H21.3727C20.6424 16.5269 20.0859 15.9422 20.0859 15.2543C20.0859 14.5665 20.6771 13.9818 21.3727 13.9818H36.3963C37.1266 13.9818 37.6831 14.5665 37.6831 15.2543C37.6483 15.9422 37.0918 16.5269 36.3615 16.5269Z" fill="#0FAB64"/>
<path d="M53.4368 16.5269H52.9152C52.1849 16.5269 51.6284 15.9422 51.6284 15.2543C51.6284 14.5665 52.2196 13.9818 52.9152 13.9818H53.4368C54.1671 13.9818 54.7236 14.5665 54.7236 15.2543C54.7236 15.9422 54.1671 16.5269 53.4368 16.5269Z" fill="black"/>
<path d="M59.6622 16.5269H59.2101C58.4798 16.5269 57.9233 15.9422 57.9233 15.2543C57.9233 14.5665 58.5145 13.9818 59.2101 13.9818H59.6622C60.3925 13.9818 60.9489 14.5665 60.9489 15.2543C60.9489 15.9422 60.3577 16.5269 59.6622 16.5269Z" fill="black"/>
<path d="M47.1422 16.5269H46.6901C45.9597 16.5269 45.4033 15.9422 45.4033 15.2543C45.4033 14.5665 45.9945 13.9818 46.6901 13.9818H47.1422C47.8725 13.9818 48.4289 14.5665 48.4289 15.2543C48.4289 15.9422 47.8725 16.5269 47.1422 16.5269Z" fill="black"/>
<path d="M36.3615 37.7472H21.3727C20.6424 37.7472 20.0859 37.1625 20.0859 36.4747C20.0859 35.7868 20.6771 35.2021 21.3727 35.2021H36.3963C37.1266 35.2021 37.6831 35.7868 37.6831 36.4747C37.6483 37.1969 37.0918 37.7472 36.3615 37.7472Z" fill="#0FAB64"/>
<path d="M53.4368 37.7472H52.9152C52.1849 37.7472 51.6284 37.1625 51.6284 36.4747C51.6284 35.7868 52.2196 35.2021 52.9152 35.2021H53.4368C54.1671 35.2021 54.7236 35.7868 54.7236 36.4747C54.7236 37.1969 54.1671 37.7472 53.4368 37.7472Z" fill="black"/>
<path d="M59.6622 37.7472H59.2101C58.4798 37.7472 57.9233 37.1625 57.9233 36.4747C57.9233 35.7868 58.5145 35.2021 59.2101 35.2021H59.6622C60.3925 35.2021 60.9489 35.7868 60.9489 36.4747C60.9489 37.1969 60.3577 37.7472 59.6622 37.7472Z" fill="black"/>
<path d="M47.1422 37.7472H46.6901C45.9597 37.7472 45.4033 37.1625 45.4033 36.4747C45.4033 35.7868 45.9945 35.2021 46.6901 35.2021H47.1422C47.8725 35.2021 48.4289 35.7868 48.4289 36.4747C48.4289 37.1969 47.8725 37.7472 47.1422 37.7472Z" fill="black"/>
<path d="M36.3615 58.8301H21.3727C20.6424 58.8301 20.0859 58.2454 20.0859 57.5576C20.0859 56.8697 20.6771 56.285 21.3727 56.285H36.3963C37.1266 56.285 37.6831 56.8697 37.6831 57.5576C37.6483 58.2454 37.0918 58.8301 36.3615 58.8301Z" fill="#0FAB64"/>
<path d="M53.4368 58.8301H52.9152C52.1849 58.8301 51.6284 58.2454 51.6284 57.5576C51.6284 56.8697 52.2196 56.285 52.9152 56.285H53.4368C54.1671 56.285 54.7236 56.8697 54.7236 57.5576C54.7236 58.2454 54.1671 58.8301 53.4368 58.8301Z" fill="black"/>
<path d="M59.6622 58.8301H59.2101C58.4798 58.8301 57.9233 58.2454 57.9233 57.5576C57.9233 56.8697 58.5145 56.285 59.2101 56.285H59.6622C60.3925 56.285 60.9489 56.8697 60.9489 57.5576C60.9489 58.2454 60.3577 58.8301 59.6622 58.8301Z" fill="black"/>
<path d="M47.1422 58.8301H46.6901C45.9597 58.8301 45.4033 58.2454 45.4033 57.5576C45.4033 56.8697 45.9945 56.285 46.6901 56.285H47.1422C47.8725 56.285 48.4289 56.8697 48.4289 57.5576C48.4289 58.2454 47.8725 58.8301 47.1422 58.8301Z" fill="black"/>
</g>
<defs>
<clipPath id="clip0_3122_3797">
<rect width="53" height="66" fill="white" transform="translate(14 7)"/>
</clipPath>
</defs>
</svg>
