<svg width="80" height="80" viewBox="0 0 80 80" fill="none" xmlns="http://www.w3.org/2000/svg">
<path d="M41.6873 52.3721L45.7606 72.6241L39.642 78.8L33.5234 72.6241L37.6025 52.3721" stroke="black" stroke-width="2" stroke-linecap="round" stroke-linejoin="round"/>
<path d="M38.1582 67.0327L37.2588 71.5071C37.952 72.206 38.8285 73.094 39.6478 73.9133L42.0368 71.5071L41.1373 67.0327C40.6504 67.1072 40.1577 67.1588 39.6478 67.1588C39.1379 67.1588 38.6452 67.1072 38.1582 67.0327Z" fill="#0FAB64"/>
<path d="M50.6418 20.4958C51.1231 23.3661 51.5642 26.6545 51.547 28.992C51.421 31.6846 50.7793 33.7528 49.095 35.821C47.9778 37.1959 47.508 38.9834 47.7143 40.7365L47.8117 41.55C47.8862 42.1744 48.2242 42.7359 48.7455 43.0854C48.9288 43.2114 49.1351 43.3031 49.3471 43.3661L59.2296 46.2363C60.4728 46.5113 61.779 47.1931 63.0623 48.2472C65.0732 49.9086 66.4596 52.2346 66.9695 54.784L69.284 72.3205H49.2038" stroke="black" stroke-width="2" stroke-linecap="round" stroke-linejoin="round"/>
<path d="M26.9292 37.1214C18.708 38.5308 14.9326 32.057 14.9326 32.057C18.0263 31.6846 19.9799 29.9945 21.2517 27.5941C22.9991 24.3056 23.1881 20.8338 23.6121 17.1845C23.91 14.5949 24.3454 11.9882 25.411 9.61071C27.8286 4.20825 33.8727 1 39.6476 1C45.4224 1 51.4665 4.20825 53.8842 9.61071C54.9498 11.9882 55.3795 14.5949 55.6831 17.1845C56.107 20.8338 56.2961 24.2999 58.0434 27.5941C59.321 29.9945 61.2689 31.6846 64.3625 32.057C64.3625 32.057 60.5871 38.5365 52.366 37.1214" stroke="black" stroke-width="2" stroke-linecap="round" stroke-linejoin="round"/>
<path d="M30.5449 43.0911L39.6426 49.8857L48.746 43.0911" stroke="black" stroke-width="2" stroke-linecap="round" stroke-linejoin="round"/>
<path d="M34.6523 50.0462L39.6423 53.7757L44.8557 49.8857" stroke="black" stroke-width="2" stroke-linecap="round" stroke-linejoin="round"/>
<path d="M49.5703 65.5833H58.0149" stroke="black" stroke-width="2" stroke-linecap="round" stroke-linejoin="round"/>
<path d="M30.0802 72.3263H10L12.3145 54.7898C12.8244 52.2404 14.2108 49.9144 16.2217 48.253C17.505 47.1988 18.8055 46.5171 20.0544 46.2421L29.937 43.3719C30.1489 43.3089 30.3552 43.2172 30.5385 43.0911C31.0599 42.7417 31.4036 42.1802 31.4723 41.5558L31.5697 40.7423C31.776 38.9834 31.3062 37.196 30.189 35.8268C28.5104 33.7586 27.8631 31.6904 27.737 28.9978C27.7141 26.2249 28.3386 22.123 28.9115 18.9605C29.4328 16.0903 31.3463 13.6669 34.016 12.4925C36.1701 11.5415 38.7253 12.0972 40.2205 13.919C40.232 13.9305 40.2435 13.9477 40.2549 13.9591C41.3033 15.2539 42.0767 16.7606 43.234 17.958C45.1188 19.9001 47.9776 20.8397 50.6473 20.3928" stroke="black" stroke-width="2" stroke-linecap="round" stroke-linejoin="round"/>
</svg>
