<svg width="133" height="49" viewBox="0 0 133 49" fill="none" xmlns="http://www.w3.org/2000/svg">
<path d="M15.84 12.876V28.332C15.84 30.7 15.1893 32.524 13.888 33.804C12.608 35.084 10.8267 35.724 8.544 35.724C6.06933 35.724 4.10667 35.0307 2.656 33.644C1.20533 32.236 0.48 30.22 0.48 27.596H5.888C5.888 29.708 6.688 30.764 8.288 30.764C9.67467 30.764 10.368 29.9533 10.368 28.332V12.876H15.84ZM36.9565 30.156L40.8285 17.644H46.6525L40.3165 35.5H33.5325L27.1965 17.644H33.0205L36.9565 30.156ZM65.8793 26.092C65.8793 26.54 65.8259 27.0307 65.7193 27.564H53.3353C53.3993 28.908 53.7406 29.8787 54.3593 30.476C54.9779 31.052 55.7673 31.34 56.7273 31.34C57.5379 31.34 58.2099 31.1373 58.7433 30.732C59.2766 30.3267 59.6286 29.804 59.7993 29.164H65.5913C65.3566 30.4227 64.8446 31.5533 64.0553 32.556C63.2659 33.5373 62.2633 34.316 61.0473 34.892C59.8313 35.4467 58.4766 35.724 56.9833 35.724C55.2339 35.724 53.6766 35.3613 52.3113 34.636C50.9673 33.8893 49.9113 32.8227 49.1432 31.436C48.3753 30.0493 47.9913 28.428 47.9913 26.572C47.9913 24.6947 48.3646 23.0733 49.1113 21.708C49.8793 20.3213 50.9459 19.2653 52.3113 18.54C53.6766 17.7933 55.2339 17.42 56.9833 17.42C58.7539 17.42 60.3113 17.7827 61.6553 18.508C62.9993 19.2333 64.0339 20.2573 64.7593 21.58C65.5059 22.8813 65.8793 24.3853 65.8793 26.092ZM60.3433 25.26C60.3646 24.0867 60.0446 23.212 59.3833 22.636C58.7433 22.0387 57.9433 21.74 56.9833 21.74C55.9806 21.74 55.1486 22.0387 54.4873 22.636C53.8259 23.2333 53.4526 24.108 53.3673 25.26H60.3433ZM75.2278 17.42C77.4891 17.42 79.2918 17.9853 80.6358 19.116C82.0011 20.2467 82.8544 21.74 83.1958 23.596H78.0758C77.9264 22.8707 77.5851 22.3053 77.0518 21.9C76.5398 21.4733 75.8891 21.26 75.0998 21.26C74.4811 21.26 74.0118 21.3987 73.6918 21.676C73.3718 21.932 73.2118 22.3053 73.2118 22.796C73.2118 23.3507 73.4998 23.7667 74.0758 24.044C74.6731 24.3213 75.6011 24.5987 76.8598 24.876C78.2251 25.196 79.3451 25.5267 80.2198 25.868C81.0944 26.188 81.8518 26.7213 82.4918 27.468C83.1318 28.2147 83.4518 29.2173 83.4518 30.476C83.4518 31.5 83.1744 32.4067 82.6198 33.196C82.0651 33.9853 81.2651 34.604 80.2198 35.052C79.1744 35.5 77.9371 35.724 76.5078 35.724C74.0971 35.724 72.1664 35.1907 70.7158 34.124C69.2651 33.0573 68.3798 31.532 68.0598 29.548H73.3398C73.4251 30.316 73.7451 30.9027 74.2998 31.308C74.8758 31.7133 75.6118 31.916 76.5078 31.916C77.1264 31.916 77.5958 31.7773 77.9158 31.5C78.2358 31.2013 78.3958 30.8173 78.3958 30.348C78.3958 29.7293 78.0971 29.292 77.4998 29.036C76.9238 28.7587 75.9744 28.4707 74.6518 28.172C73.3291 27.8947 72.2411 27.596 71.3878 27.276C70.5344 26.956 69.7984 26.444 69.1798 25.74C68.5611 25.0147 68.2518 24.0333 68.2518 22.796C68.2518 21.196 68.8598 19.9053 70.0758 18.924C71.2918 17.9213 73.0091 17.42 75.2278 17.42ZM96.5938 30.796V35.5H94.1298C92.0391 35.5 90.4071 34.988 89.2338 33.964C88.0818 32.9187 87.5058 31.2013 87.5058 28.812V22.252H85.1058V17.644H87.5058V13.26H92.9778V17.644H96.5618V22.252H92.9778V28.908C92.9778 29.612 93.1164 30.1027 93.3938 30.38C93.6924 30.6573 94.1831 30.796 94.8658 30.796H96.5938ZM108.021 17.42C109.792 17.42 111.371 17.7933 112.757 18.54C114.165 19.2653 115.264 20.3213 116.053 21.708C116.864 23.0947 117.269 24.716 117.269 26.572C117.269 28.428 116.864 30.0493 116.053 31.436C115.264 32.8227 114.165 33.8893 112.757 34.636C111.371 35.3613 109.792 35.724 108.021 35.724C106.251 35.724 104.661 35.3613 103.253 34.636C101.845 33.8893 100.736 32.8227 99.9253 31.436C99.1359 30.0493 98.7413 28.428 98.7413 26.572C98.7413 24.716 99.1359 23.0947 99.9253 21.708C100.736 20.3213 101.845 19.2653 103.253 18.54C104.661 17.7933 106.251 17.42 108.021 17.42ZM108.021 22.156C106.976 22.156 106.091 22.54 105.365 23.308C104.661 24.0547 104.309 25.1427 104.309 26.572C104.309 28.0013 104.661 29.0893 105.365 29.836C106.091 30.5827 106.976 30.956 108.021 30.956C109.067 30.956 109.941 30.5827 110.645 29.836C111.349 29.0893 111.701 28.0013 111.701 26.572C111.701 25.1427 111.349 24.0547 110.645 23.308C109.941 22.54 109.067 22.156 108.021 22.156ZM125.579 21.004C126.261 19.916 127.136 19.052 128.203 18.412C129.291 17.772 130.464 17.452 131.723 17.452V23.308H130.155C128.704 23.308 127.573 23.6173 126.763 24.236C125.973 24.8547 125.579 25.9 125.579 27.372V35.5H120.107V17.644H125.579V21.004Z" fill="black"/>
<path d="M18.9385 12.62C18.9385 11.788 19.2372 11.1053 19.8345 10.572C20.4318 10.0173 21.2212 9.74 22.2025 9.74C23.1838 9.74 23.9732 10.0173 24.5705 10.572C25.1678 11.1053 25.4665 11.788 25.4665 12.62C25.4665 13.4307 25.1678 14.1133 24.5705 14.668C23.9732 15.2013 23.1838 15.468 22.2025 15.468C21.2212 15.468 20.4318 15.2013 19.8345 14.668C19.2372 14.1133 18.9385 13.4307 18.9385 12.62ZM24.9225 17.644V35.5H19.4505V17.644H24.9225Z" fill="#0FAB64"/>
</svg>
