<svg width="41" height="41" viewBox="0 0 41 41" fill="none" xmlns="http://www.w3.org/2000/svg">
<path d="M8.62695 21.7902C8.62695 18.4447 11.1864 15.6552 14.5196 15.3681L16.8418 15.168C19.6933 14.9223 22.5606 14.9223 25.4121 15.168L27.7315 15.3678C31.0662 15.6551 33.627 18.4459 33.627 21.7931V22.3177C33.627 24.8804 31.9315 27.134 29.4692 27.8442V27.8442C27.4031 28.4401 25.1758 27.957 23.5423 26.5587L22.3366 25.5266C21.6408 24.931 20.6144 24.9325 19.9203 25.5301L18.7456 26.5416C17.1096 27.9502 14.8739 28.4397 12.7989 27.8436V27.8436C10.3287 27.1339 8.62695 24.8744 8.62695 22.3042V21.7902Z" stroke="#0FAB64" stroke-width="2"/>
<path d="M26.627 24.7988C26.0747 24.7988 25.627 24.575 25.627 24.2988C25.627 24.0227 26.0747 23.7988 26.627 23.7988" stroke="#0FAB64" stroke-width="2"/>
<path d="M26.627 24.7988C26.627 24.7988 26.627 24.575 26.627 24.2988C26.627 24.0227 26.627 23.7988 26.627 23.7988" stroke="#0FAB64" stroke-width="2"/>
<path d="M15.627 24.7988C15.627 24.7988 15.627 24.575 15.627 24.2988C15.627 24.0227 15.627 23.7988 15.627 23.7988" stroke="#0FAB64" stroke-width="2"/>
<path d="M15.627 24.7988C16.1792 24.7988 16.627 24.575 16.627 24.2988C16.627 24.0227 16.1792 23.7988 15.627 23.7988" stroke="#0FAB64" stroke-width="2"/>
<path d="M13.627 20.7988C13.9841 20.4655 14.9841 19.7988 16.127 19.7988C17.2698 19.7988 18.3889 20.4655 18.627 20.7988" stroke="#0FAB64" stroke-width="2" stroke-linecap="round"/>
<path d="M28.627 20.7988C28.2698 20.4655 27.2698 19.7988 26.127 19.7988C24.9841 19.7988 23.865 20.4655 23.627 20.7988" stroke="#0FAB64" stroke-width="2" stroke-linecap="round"/>
<path d="M17.627 32.7988C17.9186 33.1322 19.027 33.7988 21.127 33.7988C23.227 33.7988 24.3353 33.1322 24.627 32.7988" stroke="#0FAB64" stroke-width="2" stroke-linecap="round"/>
<path d="M9.3569 18.9213L9.24718 18.976C7.326 19.8831 4.76304 19.1421 4.08643 17.4056C6.21963 16.8563 7.331 15.6957 8.60114 13.9549C5.76992 14.1564 4.04829 11.1929 3.62695 10.059C8.05074 10.059 9.82025 3.63348 18.7942 1.99565C25.9734 0.685388 28.9479 6.23732 29.5377 9.17707C31.0123 8.67312 34.2143 8.54715 35.2255 12.0749C36.4894 16.4846 35.0991 19.6343 37.627 19.6343C37.1214 20.3063 35.7058 21.3982 34.0879 20.3903C33.9444 20.3046 33.617 20.0727 33.4553 19.8309" stroke="#0FAB64" stroke-width="2" stroke-linecap="round" stroke-linejoin="round"/>
<path d="M24.627 15.6614C24.5889 15.5734 24.4717 15.3506 24.4178 15.2502C23.3268 13.293 20.0481 10.6542 15.6621 15.7564L15.627 15.7988" stroke="#0FAB64" stroke-width="2" stroke-linecap="round" stroke-linejoin="round"/>
<path d="M29.627 9.79883L27.7671 11.2726L28.5758 12.9568L26.2309 14.4306L25.627 14.7988" stroke="#0FAB64" stroke-width="2" stroke-linecap="round" stroke-linejoin="round"/>
<path d="M10.627 26.7988L10.7284 27.2759C11.8838 32.7025 13.1281 39.7988 21.127 39.7988C29.1258 39.7988 30.3701 32.7025 31.5255 27.2759L31.627 26.7988" stroke="#0FAB64" stroke-width="2" stroke-linecap="round"/>
<path d="M14.627 37.7988V39.7988" stroke="#0FAB64" stroke-width="2" stroke-linecap="round"/>
<path d="M11.627 30.7988H10.3121C6.88337 30.7988 4.87086 24.7491 8.71944 23.8213L8.84218 23.7988" stroke="#0FAB64" stroke-width="2" stroke-linecap="round"/>
<path d="M30.627 30.7988H31.9418C35.3705 30.7988 37.383 24.7491 33.5345 23.8213L33.4117 23.7988" stroke="#0FAB64" stroke-width="2" stroke-linecap="round"/>
<path d="M27.627 37.7988V39.7988" stroke="#0FAB64" stroke-width="2" stroke-linecap="round"/>
</svg>
