<svg width="32" height="32" viewBox="0 0 32 32" fill="none" xmlns="http://www.w3.org/2000/svg">
<path d="M10 25C12.2091 25 14 23.2091 14 21C14 18.7909 12.2091 17 10 17C7.79086 17 6 18.7909 6 21C6 23.2091 7.79086 25 10 25Z" stroke="#0FAB64" stroke-width="2" stroke-linecap="round" stroke-linejoin="round"/>
<path d="M3.99976 27.9997C4.69846 27.0684 5.6044 26.3124 6.64583 25.7918C7.68726 25.2711 8.8356 25 9.99994 25C11.1643 25 12.3126 25.271 13.3541 25.7916C14.3955 26.3122 15.3015 27.0681 16.0003 27.9995" stroke="#0FAB64" stroke-width="2" stroke-linecap="round" stroke-linejoin="round"/>
<path d="M10 12C12.2091 12 14 10.2091 14 8C14 5.79086 12.2091 4 10 4C7.79086 4 6 5.79086 6 8C6 10.2091 7.79086 12 10 12Z" stroke="#0FAB64" stroke-width="2" stroke-linecap="round" stroke-linejoin="round"/>
<path d="M3.99976 14.9997C4.69846 14.0684 5.6044 13.3124 6.64583 12.7918C7.68726 12.2711 8.8356 12 9.99994 12C11.1643 12 12.3126 12.271 13.3541 12.7916C14.3955 13.3122 15.3015 14.0681 16.0003 14.9995" stroke="#0FAB64" stroke-width="2" stroke-linecap="round" stroke-linejoin="round"/>
<path d="M22 25C24.2091 25 26 23.2091 26 21C26 18.7909 24.2091 17 22 17C19.7909 17 18 18.7909 18 21C18 23.2091 19.7909 25 22 25Z" stroke="#0FAB64" stroke-width="2" stroke-linecap="round" stroke-linejoin="round"/>
<path d="M15.9998 27.9997C16.6985 27.0684 17.6044 26.3124 18.6458 25.7918C19.6873 25.2711 20.8356 25 21.9999 25C23.1643 25 24.3126 25.271 25.3541 25.7916C26.3955 26.3122 27.3015 27.0681 28.0003 27.9995" stroke="#0FAB64" stroke-width="2" stroke-linecap="round" stroke-linejoin="round"/>
<path d="M22 12C24.2091 12 26 10.2091 26 8C26 5.79086 24.2091 4 22 4C19.7909 4 18 5.79086 18 8C18 10.2091 19.7909 12 22 12Z" stroke="#0FAB64" stroke-width="2" stroke-linecap="round" stroke-linejoin="round"/>
<path d="M15.9998 14.9997C16.6985 14.0684 17.6044 13.3124 18.6458 12.7918C19.6873 12.2711 20.8356 12 21.9999 12C23.1643 12 24.3126 12.271 25.3541 12.7916C26.3955 13.3122 27.3015 14.0681 28.0003 14.9995" stroke="#0FAB64" stroke-width="2" stroke-linecap="round" stroke-linejoin="round"/>
</svg>
