<svg width="120" height="97" viewBox="0 0 120 97" fill="none" xmlns="http://www.w3.org/2000/svg">
<g clip-path="url(#clip0_3041_1427)">
<path d="M34.4959 83.2354C20.2724 83.2354 10.9536 77.0818 6.37598 74.3289V84.369C7.84737 85.9883 17.8201 93.9232 34.4959 93.9232C51.3351 93.9232 61.4713 85.9883 62.7792 84.369V73.6812C61.3079 75.3005 51.3351 83.2354 34.4959 83.2354Z" fill="#0FAB64"/>
<path d="M91.7166 72.3856C77.4931 72.3856 68.1743 66.232 63.5967 63.479V73.5191C65.0681 75.1385 75.0408 83.0734 91.7166 83.0734C108.556 83.0734 118.692 75.1385 120 73.5191V62.8313C118.529 64.2887 108.556 72.3856 91.7166 72.3856Z" fill="#0FAB64"/>
<path d="M26.4852 6.47738C26.4852 3.56252 24.1964 1.29541 21.2536 1.29541C18.3108 1.29541 16.022 3.56252 16.022 6.47738C16.022 9.39224 18.3108 11.6593 21.2536 11.6593C24.1964 11.6593 26.4852 9.39224 26.4852 6.47738Z" fill="#0FAB64"/>
<path d="M68.1742 6.47738C68.1742 3.56252 65.8853 1.29541 62.9425 1.29541C59.9998 1.29541 57.7109 3.56252 57.7109 6.47738C57.7109 9.39224 59.9998 11.6593 62.9425 11.6593C65.8853 11.6593 68.1742 9.39224 68.1742 6.47738Z" fill="#0FAB64"/>
<path d="M111.008 6.47738C111.008 3.56252 108.719 1.29541 105.777 1.29541C102.834 1.29541 100.545 3.56252 100.545 6.47738C100.545 9.39224 102.834 11.6593 105.777 11.6593C108.719 11.6593 111.008 9.39224 111.008 6.47738Z" fill="#0FAB64"/>
<path d="M116.24 45.1803C116.24 37.7312 103.815 31.7396 87.7929 31.4157V7.12521H94.0054C94.4959 9.87813 96.9482 11.9833 99.891 11.9833C103.161 11.9833 105.94 9.39232 105.94 5.99165C105.94 2.59099 103.324 0 99.891 0C97.1117 0 94.6594 1.94324 94.0054 4.69616H86.6485C85.9945 4.69616 85.3406 5.18197 85.3406 5.99165V32.7112V45.1803C85.3406 45.828 85.8311 46.3139 86.485 46.3139C87.139 46.3139 87.6294 45.828 87.6294 45.1803V33.8447C101.853 34.1686 113.624 39.1886 113.624 45.1803C113.624 51.3339 101.199 56.5159 86.485 56.5159C71.7711 56.5159 59.346 51.3339 59.346 45.1803C59.346 40.3222 67.5204 35.788 78.8011 34.3306C79.455 34.1686 79.9455 33.6828 79.782 33.0351C79.6185 32.3873 79.1281 31.9015 78.4741 32.0634C65.5586 33.6828 56.8937 39.0267 56.8937 45.3422C56.8937 53.1152 69.9727 59.1068 86.485 59.1068C98.7466 59.1068 109.21 55.7062 113.624 51.01V58.1352C113.624 64.2888 101.199 69.4708 86.485 69.4708C71.7711 69.4708 59.346 64.2888 59.346 58.1352V55.8681C59.346 55.2204 58.8556 54.5726 58.0381 54.5726C57.3842 54.5726 56.7302 55.0584 56.7302 55.8681V65.5843C52.4796 60.7262 42.5068 57.3255 30.5722 57.1636V26.7195H58.0381C58.6921 26.7195 59.1826 26.2337 59.1826 25.586V12.3072C62.1253 11.6594 64.2507 9.23038 64.2507 6.47746C64.2507 3.23873 61.6349 0.48581 58.2016 0.48581C54.9319 0.48581 52.3161 3.23873 52.3161 6.47746C52.3161 9.39232 54.4414 11.6594 57.0572 12.3072V24.2905H30.8992V6.47746C30.8992 5.82972 30.4087 5.18197 29.5913 5.18197H22.2343C21.7439 2.42905 19.2916 0.323873 16.3488 0.323873C13.079 0.48581 10.2997 3.23873 10.2997 6.47746C10.2997 9.71619 13.079 12.3072 16.3488 12.3072C19.1281 12.3072 21.5804 10.3639 22.2343 7.61102H28.4469V70.2805C28.4469 70.9282 28.9373 71.576 29.7548 71.576C30.4087 71.576 31.0627 71.0901 31.0627 70.2805V59.1068C45.2861 59.4307 57.0572 64.4508 57.0572 70.4424C57.0572 76.596 44.6321 81.778 29.9183 81.778C15.2044 81.778 2.77929 76.596 2.77929 70.4424C2.77929 65.5843 10.4632 61.212 21.5804 59.7546C22.2343 59.5927 22.7248 59.1068 22.5613 58.4591C22.3978 57.8113 21.9074 57.3255 21.2534 57.4875C8.33787 59.1068 0 64.2888 0 70.4424V83.7212C0 83.8831 0 84.0451 0.163488 84.207C1.47139 91.3322 13.8965 96.6761 29.5913 96.6761C43.3242 96.6761 54.6049 92.4658 58.0381 86.798C61.4714 92.6277 72.752 96.8381 86.6485 96.8381C103.324 96.8381 116.24 90.8464 116.24 83.0735C116.24 82.4257 115.749 81.778 114.932 81.778C114.278 81.778 113.624 82.2638 113.624 83.0735C113.624 89.227 101.199 94.409 86.485 94.409C71.7711 94.409 59.346 89.227 59.346 83.0735C59.346 82.5876 59.0191 82.1018 58.3651 81.9399C58.2016 81.778 58.0381 81.778 57.8747 81.778C57.2207 81.778 56.5668 82.2638 56.5668 83.0735C56.5668 89.227 44.1417 94.409 29.4278 94.409C14.7139 94.409 2.28883 89.227 2.28883 83.0735V75.9482C6.86648 80.8063 17.1662 84.0451 29.4278 84.0451C43.1608 84.0451 54.4414 79.8347 57.8747 74.1669C61.3079 79.9967 72.5886 84.207 86.485 84.207C103.161 84.207 116.076 78.2154 116.076 70.4424C116.076 69.7947 115.586 69.1469 114.768 69.1469C114.114 69.1469 113.46 69.6327 113.46 70.4424C113.46 76.596 101.035 81.778 86.3215 81.778C71.6076 81.778 59.1826 76.596 59.1826 70.4424V63.3172C63.7602 68.1753 74.0599 71.414 86.3215 71.414C101.526 71.414 113.624 66.394 115.586 59.5927C115.749 59.4307 115.913 59.1068 115.913 58.783V46.4758C115.913 46.3139 115.913 46.1519 115.749 45.99C116.24 45.828 116.24 45.5042 116.24 45.1803ZM99.891 2.42905C101.853 2.42905 103.488 4.04841 103.488 5.99165C103.488 7.93489 101.853 9.55426 99.891 9.55426C97.9291 9.55426 96.2943 7.93489 96.2943 5.99165C96.4578 4.04841 97.9291 2.42905 99.891 2.42905ZM54.7684 6.47746C54.7684 4.53422 56.4033 2.91486 58.3651 2.91486C60.327 2.91486 61.9619 4.53422 61.9619 6.47746C61.9619 8.4207 60.327 10.0401 58.3651 10.0401C56.2398 9.87813 54.7684 8.4207 54.7684 6.47746ZM16.3488 9.87813C14.3869 9.87813 12.752 8.25876 12.752 6.31553C12.752 4.37229 14.3869 2.75292 16.3488 2.75292C18.3106 2.75292 19.9455 4.37229 19.9455 6.31553C19.9455 8.4207 18.3106 9.87813 16.3488 9.87813Z" fill="#13182B"/>
</g>
<defs>
<clipPath id="clip0_3041_1427">
<rect width="120" height="97" fill="white"/>
</clipPath>
</defs>
</svg>
