<svg width="120" height="75" viewBox="0 0 120 75" fill="none" xmlns="http://www.w3.org/2000/svg">
<g clip-path="url(#clip0_3041_1403)">
<path d="M65.0934 60.7769C73.8664 60.7769 80.9783 53.6219 80.9783 44.7957C80.9783 35.9695 73.8664 28.8145 65.0934 28.8145C56.3204 28.8145 49.2085 35.9695 49.2085 44.7957C49.2085 53.6219 56.3204 60.7769 65.0934 60.7769Z" fill="#0FAB64"/>
<path d="M118.791 15.0916H1.3813C0.517986 15.0916 0 15.7864 0 16.4812V73.284C0 73.9789 0.517986 74.6737 1.3813 74.6737H118.791C119.482 74.6737 120.173 74.1526 120.173 73.284V16.4812C120 15.7864 119.482 15.0916 118.791 15.0916ZM117.41 71.8944H2.58993V17.6972H117.41V71.8944Z" fill="#13182B"/>
<path d="M60.0862 62.1666C69.5826 62.1666 77.1797 54.3497 77.1797 44.9694C77.1797 35.5891 69.4099 27.7722 60.0862 27.7722C50.7625 27.7722 42.9927 35.5891 42.9927 44.9694C42.9927 54.3497 50.5898 62.1666 60.0862 62.1666ZM60.0862 30.2041C68.0286 30.2041 74.5898 36.8051 74.5898 44.7957C74.5898 52.7863 68.0286 59.3872 60.0862 59.3872C52.1438 59.3872 45.5826 52.7863 45.5826 44.7957C45.4099 36.8051 51.9711 30.2041 60.0862 30.2041Z" fill="#13182B"/>
<path d="M23.1368 47.4015C24.5181 47.4015 25.7267 46.1855 25.7267 44.7958C25.7267 43.4061 24.5181 42.1902 23.1368 42.1902C21.7555 42.1902 20.5469 43.4061 20.5469 44.7958C20.5469 46.1855 21.7555 47.4015 23.1368 47.4015Z" fill="#13182B"/>
<path d="M97.2086 47.4015C98.639 47.4015 99.7985 46.2349 99.7985 44.7958C99.7985 43.3568 98.639 42.1902 97.2086 42.1902C95.7782 42.1902 94.6187 43.3568 94.6187 44.7958C94.6187 46.2349 95.7782 47.4015 97.2086 47.4015Z" fill="#13182B"/>
<path d="M13.8129 10.4014H106.36C107.05 10.4014 107.741 9.88029 107.741 9.01174C107.741 8.31691 107.223 7.62207 106.36 7.62207H13.8129C13.1223 7.79578 12.4316 8.49062 12.4316 9.18545C12.4316 9.88029 13.1223 10.4014 13.8129 10.4014Z" fill="#13182B"/>
<path d="M26.2446 3.10563H93.7554C94.446 3.10563 95.1367 2.58451 95.1367 1.71596C95.1367 0.847418 94.446 0.5 93.7554 0.5H26.2446C25.5539 0.5 24.8633 1.02113 24.8633 1.88967C24.8633 2.75822 25.5539 3.10563 26.2446 3.10563Z" fill="#13182B"/>
</g>
<defs>
<clipPath id="clip0_3041_1403">
<rect width="120" height="74" fill="white" transform="translate(0 0.5)"/>
</clipPath>
</defs>
</svg>
