<svg width="120" height="113" viewBox="0 0 120 113" fill="none" xmlns="http://www.w3.org/2000/svg">
<g clip-path="url(#clip0_3041_1439)">
<path d="M64.6275 61.4151L72.9254 55.7748L78.5105 52.3907C79.3083 51.9072 79.7871 51.1014 79.9466 50.1345C80.1062 49.1676 79.9466 48.2007 79.3083 47.395C78.67 46.4281 77.553 45.7835 76.2764 45.7835C75.4786 45.7835 74.8403 45.9446 74.202 46.4281L57.7658 57.7086L51.3828 54.0022L70.5317 40.9489C72.2871 39.8209 74.202 39.1763 76.2764 39.1763C79.6275 39.1763 82.819 40.7878 84.7339 43.6885C87.9254 48.3619 86.6488 54.8079 82.0211 58.0309L64.1488 69.4727L64.6275 61.4151Z" fill="#0FAB64"/>
<path d="M120 18.5489C120 18.3878 120 18.2266 119.84 18.0655C119.681 17.9043 119.681 17.7432 119.521 17.7432L90.4786 0.661147C90.1595 0.499995 89.6808 0.499995 89.3616 0.661147L60.3191 17.582C60.1595 17.7432 59.9999 17.7432 59.9999 17.9043C59.8403 18.0655 59.8403 18.2266 59.8403 18.3878V36.1144C59.8403 36.759 60.3191 37.4036 61.1169 37.4036C61.7552 37.4036 62.3935 36.9201 62.3935 36.1144V20.4827L88.5637 35.9532V66.7331L81.3829 62.5432C80.7446 62.2209 80.1063 62.382 79.7871 63.0266C79.468 63.6712 79.6276 64.3158 80.2659 64.6381L88.8829 69.6338C89.0425 69.9561 89.5212 70.2784 89.9999 70.2784H90.1595H90.3191H90.4786C90.6382 70.2784 90.7978 70.2784 90.9574 70.1173L119.84 53.1964C120.159 53.0352 120.479 52.5518 120.479 52.2295L120 18.5489ZM90.6382 67.3777V35.4698V35.3086C90.6382 35.1475 90.6382 35.1475 90.6382 34.9863C90.6382 34.9863 90.6382 34.8252 90.4786 34.8252C90.4786 34.8252 90.4786 34.664 90.3191 34.664L90.1595 34.5029C90.1595 34.5029 90.1595 34.5029 89.9999 34.3417L63.1914 18.5489L89.6808 3.07841L116.489 18.5489L94.9467 31.1187C94.3084 31.441 94.1488 32.2468 94.468 32.7302C94.6276 33.0525 95.1063 33.3748 95.585 33.3748C95.7446 33.3748 96.0637 33.3748 96.2233 33.2137L117.606 20.6439V51.5849L90.6382 67.3777Z" fill="#13182B"/>
<path d="M81.383 42.7215C79.3085 39.4985 75.7979 37.7258 71.9681 37.7258C69.734 37.7258 67.5 38.3704 65.5851 39.6596L47.0745 52.2294L30.7979 42.7215C30.4787 42.5604 30 42.5604 29.5213 42.7215L0.638298 59.6424C0.478723 59.8035 0.319149 59.8035 0.319149 59.9647C0 60.287 0 60.4481 0 60.7704V94.451C0 94.9345 0.159574 95.2568 0.638298 95.4179L28.7234 111.855C28.883 112.178 29.3617 112.5 29.8404 112.5H30H30.1596C30.3192 112.5 30.6383 112.5 30.7979 112.339L59.6809 95.5791C60 95.4179 60.3192 94.9345 60.3192 94.6122V60.7704C60.3192 60.287 60.1596 59.9647 59.6809 59.8035L55.6915 57.5474L70.5319 47.3949C71.6489 46.5891 73.0851 46.9114 73.883 48.0395C74.2021 48.523 74.3617 49.1676 74.2021 49.8122C74.0426 50.4568 73.7234 50.9402 73.2447 51.4237C72.766 51.746 72.6064 52.5517 72.9255 53.0352C73.2447 53.5186 74.0426 53.6798 74.5213 53.3575C75.6383 52.7129 76.2766 51.5848 76.5957 50.2956C76.9149 49.0064 76.5957 47.7172 75.7979 46.5891C74.3617 44.4942 71.3298 43.8496 69.0957 45.2999L53.2979 56.0971L49.3085 53.6798L66.8617 41.7546C68.2979 40.7877 70.0532 40.1431 71.9681 40.1431C75 40.1431 77.7128 41.5935 79.4681 44.1719C82.1809 48.3618 81.2234 54.0021 77.0745 56.7417L64.9468 65.1215C64.4681 65.4438 64.3085 66.2496 64.6277 66.733C64.7872 67.0553 65.266 67.2165 65.5851 67.2165C65.7447 67.2165 66.0638 67.2165 66.2234 67.0553L78.3511 58.6755C83.4575 55.1301 84.8936 48.0395 81.383 42.7215ZM2.39362 62.8654L28.5638 78.1748V109.116L2.39362 93.8064V62.8654ZM57.9255 93.8064L30.9574 109.438V78.4971L52.3404 66.0884C52.9787 65.7661 53.1383 64.9604 52.8192 64.4769C52.5 63.8323 51.7021 63.6712 51.2234 63.9935L30.1596 76.2409L3.51064 60.7704L30 45.2999L46.2766 54.8078C46.2766 54.8078 46.2766 54.8078 46.4362 54.8078L57.766 61.415V93.8064H57.9255Z" fill="#13182B"/>
<path d="M65.1065 59.32L68.9363 56.7416C69.415 56.4193 69.5746 55.6136 69.2555 55.1301C68.9363 54.6467 68.1384 54.4855 67.6597 54.8078L63.8299 57.2251C63.3512 57.5474 63.1916 58.3531 63.5108 58.8366C63.6703 59.1589 64.1491 59.32 64.4682 59.32C64.6278 59.4812 64.9469 59.32 65.1065 59.32Z" fill="#13182B"/>
</g>
<defs>
<clipPath id="clip0_3041_1439">
<rect width="120" height="112" fill="white" transform="translate(0 0.5)"/>
</clipPath>
</defs>
</svg>
