<svg width="120" height="101" viewBox="0 0 120 101" fill="none" xmlns="http://www.w3.org/2000/svg">
<g clip-path="url(#clip0_3041_1380)">
<path d="M62.9878 49.6909H34.5625V99.3673H62.9878V49.6909Z" fill="#0FAB64"/>
<path d="M120 34.6423H91.5747V99.3673H120V34.6423Z" fill="#0FAB64"/>
<path d="M115.155 33.3479H86.7294C86.0833 33.3479 85.4373 33.8333 85.4373 34.6424V39.8204V49.5291C85.4373 49.6909 85.2758 49.8528 85.2758 50.0146V98.2346H59.4346V61.3414V58.9142H78.977C79.623 58.9142 80.2691 58.4288 80.2691 57.6197C80.2691 56.8107 79.7845 56.3252 78.977 56.3252H59.4346V49.5291C59.4346 48.8819 58.9501 48.2346 58.1425 48.2346H29.7172C29.0712 48.2346 28.4252 48.7201 28.4252 49.5291V53.5744V60.856C28.4252 61.0178 28.2637 61.1796 28.2637 61.3414V73.1537V98.0728H2.4225V68.1375H22.1264C22.7724 68.1375 23.4185 67.6521 23.4185 66.843C23.4185 66.034 22.9339 65.5486 22.1264 65.5486H1.13044C0.484408 65.5486 -0.161621 66.034 -0.161621 66.843V99.2055C-0.161621 99.8528 0.322901 100.5 1.13044 100.5H29.5557H58.1425H86.5678H114.993C115.639 100.5 116.285 100.015 116.285 99.2055V34.4806C116.447 33.9952 115.962 33.3479 115.155 33.3479ZM88.0214 39.8204V35.7751H114.024V98.0728H88.0214V39.8204ZM31.0093 53.7363V50.9854H57.012V61.5032V98.2346H31.0093V53.7363Z" fill="#13182B"/>
<path d="M12.2743 41.1149C12.5973 41.1149 12.7588 41.1149 12.9203 40.9531L44.8988 17.1667L67.3483 28.0081C67.5098 28.1699 67.6713 28.1699 67.8328 28.1699H67.9944H68.1559C68.4789 28.1699 68.6404 28.1699 68.8019 28.0081L99.1653 5.35437L95.6121 16.3576C95.4506 17.0049 95.7736 17.6521 96.4197 17.8139C96.5812 17.8139 96.7427 17.8139 96.7427 17.8139C97.2272 17.8139 97.7117 17.4903 97.8732 17.0049L102.718 2.11812C102.88 1.7945 102.718 1.30906 102.557 0.985437C102.395 0.661812 101.911 0.5 101.588 0.5L85.9217 1.63269C85.2757 1.63269 84.7911 2.27994 84.7911 2.92718C84.7911 3.57443 85.4371 4.05987 86.0832 4.05987L97.8732 3.089L68.1559 25.4191L45.5448 14.4159H45.3833C45.2218 14.4159 45.2218 14.4159 45.0603 14.4159H44.8988C44.7373 14.4159 44.7373 14.4159 44.5758 14.4159C44.5758 14.4159 44.4143 14.4159 44.4143 14.5777H44.2528L11.6283 38.8495C11.1438 39.1731 10.9822 39.9822 11.3053 40.4676C11.6283 40.9531 11.9513 41.1149 12.2743 41.1149Z" fill="#13182B"/>
</g>
<defs>
<clipPath id="clip0_3041_1380">
<rect width="120" height="100" fill="white" transform="translate(0 0.5)"/>
</clipPath>
</defs>
</svg>
